<svg version="1.0" xmlns="http://www.w3.org/2000/svg" width="682.667" height="682.667" viewBox="0 0 512 512"><path d="M238 .6c-1.9.2-7.8.9-13 1.4-22.1 2.4-48.6 9.6-71 19.2-40.6 17.4-79.8 49-105.8 85.5C12.8 156.4-4.1 217.4 1 277.5c1.7 19.9 7 45.8 10.4 51 2 3.1 7.3 3.4 10.6.7 2.8-2.3 2.8-5 .1-16.4-2.8-11.8-4.9-24.9-5.6-34.3-.3-4.4-.8-10.1-1-12.6l-.5-4.6 12.2-1.2c6.8-.6 14.4-1.4 17-1.8 5.7-.7 6 .1 2.2 6.4-2.9 5.1-2.6 9.3.9 11.8 3.4 2.4 6.6 1.8 10.1-1.8 3.4-3.3 7.6-12.9 7.6-17.3 0-1.6.8-2.7 2.3-3.3 4.9-2 22.2-7 22.6-6.6.2.3-.4 2.5-1.4 5-2.1 5.7-.9 9.7 3.7 11.6 6.3 2.6 11.1-3.4 13.1-16.4l1.1-6.8 10.8-5.5c6-3 11.1-5.4 11.3-5.4.2 0 .1 2.2-.2 4.9-.5 4.4-.3 5.2 2 7.5 4.8 4.8 10.8 2.6 12.8-4.6.6-2.3.9-7 .7-10.4l-.3-6.4 10.5-7.5 10.5-7.5.8 4.3c.9 4.7 3.7 7.7 7.4 7.7 7.5 0 9.9-7.5 6.1-19.8-1-3.3-.9-3.5 8.9-13.5 5.4-5.6 10-10.3 10.3-10.5.3-.1 1.2 1.7 2 4 1.7 4.7 4.8 6.6 9.4 5.4 5.8-1.4 6.5-11 1.5-19.5l-2-3.4 3.6-5.1c2-2.8 5.8-8.4 8.3-12.3 2.6-4 5-7.3 5.3-7.3.4 0 1.2 1.4 1.9 3 1.5 3.7 4.6 6 7.8 6 3.1 0 7.2-4.3 7.2-7.5 0-3.1-2.9-9.1-6.5-13.3l-2.6-3.2 4.4-9.7c2.4-5.4 5-11.5 5.8-13.6l1.3-3.7 4.1 4.5c3 3.2 5 4.5 6.9 4.5 3.3 0 7.6-4.1 7.6-7.3 0-3.3-5.6-11.4-9.6-14-1.9-1.2-3.4-2.7-3.3-3.2 0-.6 1.4-7 3.2-14.4l3.3-13.5 4 3.7c4.9 4.3 8.1 5.7 11.1 4.6 3.3-1.2 5.6-5.4 4.8-8.6-.9-3.6-8.1-10.5-13.5-12.9l-4.2-1.9.6-9.9c.4-5.5.8-10.1.9-10.2.1-.2 5.9.1 12.7.6 48.2 3.7 92.2 20.8 131 50.8 10.6 8.3 30.7 28.2 39 38.7 25.9 32.8 42.9 70.9 49.4 110.5 1.5 9.1 3.8 34.1 3.2 34.7-.1.1-4.7.5-10.2.9l-9.9.6-1.9-4.2c-2.4-5.5-9.3-12.6-12.9-13.5-4.1-1.1-8.1 2.1-8.5 6.7-.3 3 .4 4.4 3.9 8.4l4.2 4.9-13.4 3.2c-7.4 1.8-13.8 3.2-14.4 3.2-.5.1-2-1.4-3.2-3.3-2.6-4-10.7-9.6-14-9.6-3.2 0-7.3 4.3-7.3 7.6 0 1.9 1.3 3.9 4.5 6.9l4.5 4.1-3.7 1.3c-2.1.8-8.2 3.4-13.6 5.8l-9.7 4.4-3.2-2.6c-4.2-3.6-10.2-6.5-13.3-6.5-2.8 0-7.5 4-7.5 6.4 0 3.4 2.2 6.7 5.5 8.3 1.9.9 3.5 1.9 3.5 2.2 0 .3-3.3 2.7-7.3 5.2-3.9 2.6-9.5 6.3-12.3 8.3l-5.1 3.7-3.4-2c-5.6-3.3-12.4-4.4-15.9-2.6-3.4 1.7-4.7 5.5-3.4 9.4.7 1.8 2.2 3 5.2 4.1 2.3.8 4.1 1.7 4 2-.2.3-4.9 4.9-10.5 10.4-10 9.7-10.2 9.8-13.5 8.8-12.2-3.8-19.8-1.4-19.8 6 0 4.1 2.6 6.6 7.6 7.4 4.1.6 4.4.8 3.2 2.4-.7 1-4.1 5.9-7.5 10.7l-6.2 8.9-6-.4c-8-.6-12.8.4-15.7 3.3-3.1 3.1-3.1 6.9.2 10.2 2.3 2.3 3.1 2.5 7.6 2 2.7-.4 4.8-.2 4.6.2-.2.5-2.5 5.6-5.3 11.3l-5 10.4-7.1 1.1c-13 1.9-19.1 6.7-16.5 13.1 1.9 4.6 5.9 5.8 11.6 3.7 2.5-1 4.7-1.6 4.9-1.4.5.4-6 22.4-7 24-.3.5-1.6.9-2.9.9-4.3 0-13.9 4.2-17.2 7.6-3.6 3.5-4.2 6.7-1.8 10.1 2.5 3.6 6.4 3.8 12.2.7 2.8-1.6 5.5-2.6 5.8-2.2.4.4.1 5.4-.6 11.2l-1.3 10.6 2.4 2.5c1.9 2 3.2 2.5 5.9 2.3 5.1-.4 6.9-3.6 8.3-15.1.7-5.3 1.7-9.7 2.2-9.7.6 0 2.6 1.6 4.6 3.5 4.9 4.8 9.1 5.5 12.4 2.2 4-4 3.5-7.9-1.8-13.2-2.4-2.4-6.3-5.3-8.5-6.5-3.7-1.8-4.1-2.3-3.5-4.8 1-4.2 5.6-18.6 6-19.2.3-.2 2.2 1.5 4.3 3.8 4.6 5 8.5 5.6 11.9 1.9 4.2-4.5 2.2-10.4-6.1-17.9l-4.1-3.7 4.9-10.1c2.7-5.5 5.2-10 5.6-10 .4 0 1.2 1.4 1.9 3 1.5 3.6 3.7 5 7.9 5 3.6 0 7.1-3.3 7.1-6.7 0-3-3.5-10-6.6-13.4l-2.4-2.5 3.2-4.5c1.7-2.4 4.9-6.8 7.1-9.8l4-5.4 1.3 3.9c1.6 4.6 3.7 6.4 7.6 6.4 6.9 0 8.8-8.1 4.3-17.8l-2.5-5.4 9.2-8.9 9.3-9 1.2 4.8c1.3 5.1 3.4 7.3 6.9 7.3 6.2 0 8.9-4.5 7.9-12.9-.4-3.1-1.1-6.4-1.7-7.4-.6-1.2-.6-2.3.2-3.2 1.1-1.3 20.4-14.5 21.2-14.5.2 0 .3 2.5.3 5.6 0 5 .3 5.9 2.7 7.7 2.9 2.2 6.5 1.8 9.2-.8 2.4-2.4 3.9-9.5 3.3-15.5l-.6-5.5 4.2-1.9c21.5-9.5 21-9.4 18.1-2.1-3.8 10 6.6 15.8 13 7.2 1.1-1.5 2.7-6.4 3.6-10.9l1.7-8.2 4.9-1.3c8.4-2.3 18.7-4.4 19.1-3.9.2.2-.7 2.7-2.1 5.5-1.4 2.8-2.6 6.2-2.6 7.6 0 5.9 8.5 8.8 12.7 4.2 3-3.2 6.2-9.9 7.4-15.7l1.1-5h5.3c2.9 0 6.7-.3 8.4-.6l3.1-.6v5.8c-.1 14.9-5.5 43-12.1 62-12.4 36-30.7 65.3-57.9 92.4-38.8 38.8-85.1 61.5-141 69.1-5.2.7-18.3 1.3-29 1.3s-23.8-.6-29-1.3c-55.6-7.5-101.9-30.1-140.6-68.6C66 406.2 52.7 387.6 40 361.7c-4.2-8.6-8.5-16.6-9.5-17.7-2.3-2.5-6.6-2.6-9.6-.1-4 3.2-3.1 7.3 5.8 25.3C40 396 54.9 416.7 76.2 437.7c40.9 40.6 90.7 64.8 148.8 72.5 12.3 1.6 49.7 1.6 62 0 80.3-10.6 148.2-55.2 189.5-124.4 17.3-29 29-63.1 33.7-98.8 1.6-12.3 1.6-49.7 0-62-4.7-35.7-16.4-69.8-33.7-98.8C453.9 88.4 423.6 58 386 35.6 357.1 18.3 322.6 6.5 288 2 279.2.8 244.2-.1 238 .6zm7.6 18.5c-.3 1.7-.6 5.5-.6 8.4v5.3l-5 1.1c-5.8 1.2-12.5 4.4-15.7 7.4-4.6 4.2-1.7 12.7 4.2 12.7 1.4 0 4.8-1.2 7.6-2.6 2.8-1.4 5.3-2.3 5.5-2.1.5.4-1.6 10.7-3.9 19.1l-1.3 4.9-8.2 1.7c-4.5.9-9.4 2.5-10.9 3.6-8.6 6.4-2.8 16.8 7.2 13 7.3-2.9 7.4-3.4-2.1 18.1l-1.9 4.2-5.5-.6c-12.9-1.3-21.6 5.4-16.3 12.5 1.8 2.4 2.7 2.7 7.7 2.7 3.1 0 5.6.1 5.6.3 0 .8-13.2 20.1-14.5 21.2-.9.8-2 .8-3.2.2-1-.6-4.3-1.3-7.4-1.7-8.4-1-12.9 1.7-12.9 7.9 0 3.5 2.2 5.6 7.3 6.9l4.7 1.2-8.9 9.2-9 9.2-5.3-2.4c-6.6-3.1-13-3.3-15.8-.5-4.2 4.2-1.4 11.4 5 12.7 1.6.3 2.7.9 2.4 1.4-.3.5-4.6 3.8-9.6 7.4l-9.1 6.5-3.5-3.1c-6.7-5.9-13.2-7.4-17-3.9-4.3 4-2 11.7 4 13.6 1 .3 1.8.9 1.8 1.3 0 .8-18.3 10.1-19.9 10.1-.5 0-1.9-1.3-3.1-3-3-4.3-10.3-9-13.9-9-2 0-3.6.8-5 2.6-3.2 4.1-2.7 7.1 2.1 11.5 2.3 2.1 4 4 3.8 4.3-.6.4-15 5-19.2 6-2.5.6-3 .2-4.8-3.5-1.2-2.2-4.1-6.1-6.5-8.5-5.3-5.2-9.2-5.8-13-1.9-3.6 3.5-3.2 6.8 1.5 11.9 2.2 2.4 4 4.8 4 5.3 0 .9-6 1.8-26.4 3.9l-4.9.5.6-10.3c1.8-27.8 11.1-60.7 25-88.3 11.6-23 25.3-42 43.7-60.6 27.4-27.7 56.9-46.2 93.4-58.8 19.1-6.6 45.2-11.8 60.5-12l7.4-.1-.7 3.1z"/></svg>