<svg version="1.0" xmlns="http://www.w3.org/2000/svg" width="682.667" height="682.667" viewBox="0 0 512 512"><path d="M216.6 1.1C210.1 2.6 201.3 8 196 13.6c-9.8 10.4-13.6 23.4-11.1 38l1.3 6.9-6.1 5.7c-15.6 14.7-39.3 23.3-67.7 24.5l-14.2.6-5.4-5.4c-27.2-27.2-73.4-12.3-79.9 25.7-1.2 6.9-1.2 7.2 12.5 77.4 9.5 48.6 14.3 71.3 15.5 73 2.8 3.9 6.5 5.3 10.5 4 3.7-1.2 6-3.4 7-6.7.4-1.3-4.7-30.2-12.9-72-9.7-49.6-13.4-70.8-13-73.3 1.5-7.6 7.4-15.3 14.9-19.3 3.2-1.7 5.8-2.2 12.1-2.2 9.5 0 13.9 1.9 20.2 8.8 4.9 5.3 3.9 2.4 22.3 68.2 7.7 27.5 14.3 49.1 15.8 52 8.6 15.9 29 25.9 46.3 22.7 12.7-2.4 24-9.6 30.4-19.7 4.4-6.9 6.1-12.1 8.4-27.1 5.5-35 7.3-54.8 7.3-82.9.1-23.2-1.1-39.2-4.3-56.5-1-5.8-1.9-11.8-1.9-13.4 0-9.1 7.5-19.1 16.3-21.5 5-1.4 16-.9 22.9 1.1 4.9 1.4 10.4 6.1 12.8 10.9 3.8 7.3 9.4 34.4 12.2 58.4.7 6.3 1.3 23.2 1.3 39.7V160l-2.5 1.7c-4.8 3.2-16.2 14.8-21 21.2-10.1 13.5-16.8 31.1-19 49.7-4.1 35.7 13.1 72.8 43.4 93.6 7.7 5.3 20.2 11.1 30.1 14 7 2 10.1 2.3 25.5 2.3 20.7-.1 27.6-1.6 43.5-9.5 23.6-11.7 41.6-32.1 50.3-57.1 6.7-19.1 11.8-44 14.2-69.4 1.3-14.4 1.3-58.2-.1-75.7-1.3-16.4-.4-22.1 4.5-27.6 7.8-8.9 19.9-9.5 30.3-1.6 5.8 4.4 7.4 9.1 8.9 25.9 10 116.3-5.4 193-50.9 252.9-13.4 17.6-27.7 30.1-43.6 38.1-4.5 2.2-22.5 9.5-23.6 9.5-.2 0 .1-1.6.6-3.5 2.2-7.8-5-15-12.6-12.5-4.5 1.5-6.5 4.8-8 13.7-.7 4.1-1.5 7.6-1.6 7.7-.5.4-13 2.6-14.7 2.6-.8 0-1-1.8-.5-5.9.5-5.7.4-6.1-2.5-9-7.9-7.9-18.2-.1-18.2 13.8 0 1.6-.3 3.2-.7 3.4-.5.3-4.4.8-8.7 1.2l-7.9.8.9-2.9c1.7-5.9.9-9.5-2.6-12.7-2.8-2.5-3.8-2.9-7.4-2.4-5.3.7-8.1 4-9.7 11.2-.7 3.1-1.6 5.8-2.1 6.1-.5.3-4.7.3-9.4-.1-8.1-.7-8.4-.8-7.7-2.9 1.7-4.6.8-8.8-2.5-11.8-6.3-5.6-13.5-2.9-17 6.5l-2 5.2-6.5-.3c-3.5-.2-7.6-.6-9.1-1l-2.7-.7 2.5-3.4c3.4-4.6 4.1-8.3 2.1-12.1-1.9-3.6-7-6.2-10.6-5.3-3.6.9-8.3 5.8-11.4 11.8l-2.7 5.3-6.8-1.9c-22.4-6.2-31.1-11.2-47.9-27.8-18.6-18.2-31.7-36.1-42.9-58.7-2.3-4.5-5.3-9.1-6.8-10.3-3.9-3.1-8.9-2.8-12.5.8-4.5 4.6-4 8.3 2.9 21.5 12.9 24.6 23.7 39 46.7 62.6 15.5 15.8 17.5 18.3 21.3 26.1 7.1 14.7 9.3 24.6 9.9 44.9l.6 17.5 3.2 3.2 3.3 3.3h114.1c124.7 0 118.6.3 120.9-5.7.6-1.6 1.3-12.1 1.5-24.8.3-21 .4-22.4 3.1-30 4.2-12.3 7.8-17.6 21.8-32.3 15.9-16.8 23.8-26.4 33.3-40.7 26.5-40.1 41.2-86.1 46.6-145.5 2.5-27.2.4-104.3-3.2-122.7-5.3-26.8-36.4-42.2-60.2-29.8-2.7 1.4-5.1 2.4-5.2 2.3-.1-.2-.6-4.6-1.3-9.7-1.4-11.9-5.4-20.5-12.8-27.8-15-14.6-38-16.2-56.4-3.8l-4.9 3.3-1.2-3.6c-2.3-7.2-6.2-13.6-11.3-18.7-9.1-9.1-21.2-13.1-37.3-12.3-7.3.3-10 .9-15.8 3.6-3.8 1.8-8.8 4.8-11.1 6.7l-4.2 3.5-2.1-3.4c-3.4-5.4-11.7-12.5-18.4-15.6-9.2-4.3-27.3-6.2-37.1-3.9zm103.7 30.5c6.4 2.2 12.3 8.3 14.2 14.8 2.1 7.3 6.3 31.4 7.5 43.1.6 5.5 1.3 20.1 1.7 32.4.6 21.5.5 22.4-1.2 21.7-3.8-1.4-20.3-1.8-28.9-.7-4.9.7-12.2 2.3-16.2 3.5l-7.4 2.4v-17.9c0-20.5-1.3-37.7-4.1-56.9-3-19.8-3.3-23.4-1.9-27.6 1.6-4.9 8.4-12.2 13.5-14.5 5.1-2.3 16.4-2.5 22.8-.3zm76.3 23.7c8.1 4.2 11.9 11.1 13.4 24.5 3.4 30 6.1 85.6 5.2 104.1l-.7 12.4-5-7.9c-8.9-14.3-25.6-29.1-40.8-36.5l-4.7-2.3v-16.5c0-9.2-.7-26.2-1.6-37.9-1.3-17.2-1.4-22.1-.5-25.4 1.6-5.3 9.4-13 15.2-15.1 5.3-2 15.1-1.7 19.5.6zm-207.7 58c-4.7 3.8-25.4 12.9-26.3 11.6-.1-.2-1.1-5.9-2.2-12.5l-2-12.2 5.5-2.2c6.3-2.6 16.8-8.5 22.1-12.5l3.5-2.6.9 14.2.9 14.2-2.4 2zm-49.4-5.1c1.5 6.8 3.2 20.4 2.6 21.1-.4.4-7.2 1-15.2 1.4l-14.4.6-2.7-10c-1.6-5.5-2.8-10.5-2.8-11.2 0-.7 2.3-1.1 6.3-1.2 3.4 0 9.8-.6 14.2-1.3 11.4-1.9 11.4-1.9 12 .6zm49.5 41.5c-.7 7-1.5 13.2-1.7 13.7-.8 1.2-16.7 8.6-18.6 8.6-1.1 0-1.6-2.4-2.1-11.3-.4-6.1-.9-12.1-1.2-13.2-.4-1.8.6-2.4 7.8-4.8 4.6-1.5 10.1-3.6 12.3-4.6 2.2-1 4.2-1.7 4.3-1.5.2.1-.1 6-.8 13.1zm-43.5.5c1.2 3.4 2.1 25.3 1.1 26-.6.4-5.6.8-11.2.8h-10.1l-3.5-12.8-3.4-12.7 10.5-.7c5.8-.4 11.5-.9 12.6-1.1 1.1-.3 2.4-.5 2.8-.6.4 0 1 .5 1.2 1.1zM347 165c9.6 2.7 20.8 8.6 28.9 15.2l6.5 5.2-3 2c-6.2 4.3-17.2 16.4-20.6 22.6-16 28.9-8.5 66 17.1 85.2l6.1 4.6-5.8 5.2c-7 6.3-22.9 14.2-32.9 16.4-10.1 2.2-25.8 2.1-36.1-.4-8.1-2-19.4-6.9-25.6-11.3-4.6-3.1-11.6-9-11.6-9.7 0-.3 2.6-2.4 5.8-4.7 10.3-7.6 18.5-19.3 22.9-32.8 3.3-10.2 3.7-26.3.9-36.5-3.8-14-13.5-28.4-24.7-36.5-4.9-3.7-5-3.8-3.2-5.7 2.8-3.2 13.2-10.3 19.9-13.6 6.3-3.2 14.4-5.8 22.2-7.2 7.5-1.4 24.8-.3 33.2 2zm-163 23.2c0 3.5-3.5 18.2-5.1 21.4-1.9 4-8.2 10.4-10.1 10.4-.5 0-.8-6-.8-13.4v-13.3l7.3-2.5c7.6-2.6 8.7-3 8.7-2.6zM148 209v12.1l-2.7-1.5c-3.2-1.7-8.5-7.1-10.2-10.4-1-1.8-4-10.9-4.1-12 0-.1 3.8-.2 8.5-.2h8.5v12zm120.7 1.6c9.9 10.2 14.7 25.3 12.3 39.1-2.1 12.5-8.6 23.4-18.4 30.5-2.1 1.5-4.3 2.8-4.8 2.8-1.4 0-6.6-11.8-8.9-20.5-1.6-6.1-2.1-10.8-2.1-20 0-13.4 1.9-22.4 7.1-33.9l3-6.7 3.3 1.7c1.8.9 5.6 4.1 8.5 7zm129.1-1.8c9.7 21 9.8 46.6.3 67.5-1.8 4.1-3.6 6.7-4.5 6.7-3.1 0-15.2-12.7-18.4-19.3-10-20.3-4.2-45.1 13.7-58.3 2.5-1.8 4.9-3.4 5.2-3.4.3 0 2 3.1 3.7 6.8zm-20.9 241.3c-1.6 5.8-2.2 11.1-2.6 24.6l-.6 17.3H171.3l-.6-11.3c-.4-7.4-1.6-15.2-3.7-23.2-1.6-6.6-3-12-3-12.1 0 0 4.2 1.1 9.4 2.5l9.5 2.6.6 5.9c1 8 4.5 12.1 10.5 12.1 5.5 0 10-4.6 10-10.1v-3.6l4.3.6c2.3.3 6.6.8 9.5 1.2 3.3.4 5.2 1.1 5.2 2 0 .7.5 3.7 1.1 6.6 1.6 7.1 5.3 10.8 10.9 10.8 7 0 11.2-6 9.2-13.4-1-3.5-1-3.6 1.7-3.6 1.6 0 6.2.3 10.4.6l7.6.7 1.7 5.1c2.3 7.2 5.8 10.6 10.6 10.6 2.1 0 5-.7 6.3-1.6 3.2-2.1 4.9-7.2 3.5-10.9-.6-1.5-.9-2.9-.8-3 .2-.2 4.4-.6 9.3-1l9-.7 1.9 4.6c2.3 5.9 5.7 8.6 10.8 8.6 6.6 0 11.2-6.5 9-12.8l-1-2.9 8.3-1.4 8.4-1.5 1.7 3.9c2.2 4.7 6.7 8.7 10 8.7 7.1 0 11.6-6.2 9.6-13.4-.6-2.2-1-4.1-.9-4.2 1.7-.7 17.3-6 17.5-5.9.1.1-.7 3.6-1.9 7.6z"/><path d="M137.6 253.1c-3.6 4.2-3.3 8.1 1.2 21.4 3.5 10.3 3.9 11.1 7.4 12.8 3.2 1.6 4.3 1.7 7.3.7 7.5-2.5 8.1-7.1 3-23.6-4-12.7-5.4-14.4-12.1-14.4-3.5 0-4.7.5-6.8 3.1zm-82.5 36.3c-9 5-5 18.6 5.4 18.6 1.4 0 3.9-1.3 5.7-2.9 8.6-7.7-1-21.3-11.1-15.7zm108.7 16.2c-3.5 1.8-4.8 4.3-4.8 8.9 0 4 1.2 6 9.7 16.6 7.7 9.6 12.7 11.2 18.5 6 4.4-3.9 4.5-9.2.3-14.6-1.7-2-5.1-6.5-7.7-9.8-6.6-8.6-10.3-10.3-16-7.1zm41.9 41.5c-1.1.6-2.5 2.7-3.3 4.6-1.9 4.4-.5 9.4 3.4 12.2 5.2 3.7 21 11.1 23.7 11.1 3.6 0 9.5-5.9 9.5-9.4 0-5.4-2-7.4-13.7-13.6-11.4-6-15.7-7.1-19.6-4.9zm56 21c-2.8 1.6-4.9 6.8-4.3 10.4 1 5.2 4.3 7.4 13.7 9 13.1 2.3 18.4 2.3 21.6-.1 3.7-2.8 5-7.4 3.3-11.4-1.9-4.6-4.3-5.7-15.9-7.4-12.1-1.8-15.9-1.9-18.4-.5z"/></svg>