<svg version="1.0" xmlns="http://www.w3.org/2000/svg" width="682.667" height="682.667" viewBox="0 0 512 512"><path d="M24.5.9C15.3 3.3 7.2 9.9 3 18.5l-2.5 5-.3 84-.3 83.9L4 271.5C7.8 347 8 355 8 413.6v62.2L5 479c-7.9 8.5-5.9 23.1 4.3 29.8 4 2.7 4.1 2.7 22.7 2.7s18.7 0 22.7-2.7c10.2-6.7 12.2-21.3 4.2-30l-2.9-3v-62.2c0-58.6.2-66.6 4-142.1l4.1-80.1-.3-83.9-.3-84-3.4-6.3c-3.8-7-7-10.1-14.3-13.8C40.4.7 29.9-.6 24.5.9zm16.3 17.8c1.4 1 3.5 3.2 4.6 4.7 2.1 2.7 2.1 3.7 2.4 83.4.3 80.4.3 80.9-3.3 156.7-2 41.8-3.8 77-4.1 78.2-.4 2.2-.9 2.3-8.4 2.3s-8-.1-8.4-2.3c-.3-1.2-2.1-36-4.1-77.2-3.5-72.8-3.6-77.4-3.5-155.2 0-54.3.3-81.1 1.1-83 1.4-3.7 4.7-7.2 8.4-8.9 4-1.9 11.9-1.2 15.3 1.3zM40 368v8H24v-16h16v8zm0 32v8H24v-16h16v8zm0 32v8H24v-16h16v8zm0 32v8H24v-16h16v8zm7.4 26.2c.8 1.3.8 2.3 0 3.5-1 1.6-3 1.8-14.9 2.1-14.1.3-16.5-.3-16.5-3.7 0-3.7 2-4.2 16.4-3.9 11.9.3 14 .5 15 2zM273.8 1.5C226.5 8 197.9 35.2 188 83.3c-2 9.9-4 28.5-4 38 0 5.2-.2 5.9-2.6 6.9-5 2.3-5.4 4.5-5.4 32.9v26.2l6.3 6.4 6.4 6.3H201v3.3c0 1.9.9 6.8 1.9 11 4.2 16.3 11.7 30.2 24 44.5l6.3 7.3-3.4 13.7c-2 8.5-4.1 14.6-5.4 16.1-1.9 2.2-2.3 2.3-5.5 1.1-3.3-1.2-5.3-.6-37.4 9.9-38.9 12.8-44.5 15.5-57.3 27.6-18.6 17.5-26.5 35.4-28.2 64.2-1.4 22.8-5 42.3-13 70.1-1.7 5.6-3 11.2-3 12.3 0 3.5 4.4 6.9 8.9 6.9 7 0 7.1.2 7.1 10.2 0 8.1.2 9.1 2.5 11.3 3.2 3.3 7.8 3.3 11 0 2.3-2.2 2.5-3.2 2.5-11 0-4.7.1-8.5.3-8.5.1 0 13.5 1.1 29.7 2.5s30.5 2.5 31.7 2.5c2.1 0 2.3.4 2.3 6 0 5.1.4 6.5 2.5 8.5 3.2 3.3 7.8 3.3 11 0l2.5-2.4v-78.2l-2.5-2.4c-3.2-3.3-7.8-3.3-11 0l-2.5 2.4V454c0 23.1-.1 25-1.7 25-3.5 0-74.8-6.2-75.1-6.5-.2-.2 1.2-6.6 3.2-14.2 5.2-20.2 8.6-40 9.2-53.7.7-16.4 2.8-26.5 7.5-36.5 6.6-14.2 16.9-25.2 30.9-32.9 4.7-2.6 20.4-8.2 34.7-12.3 4.1-1.2 4.3-1.1 6.5 1.7 17.7 22.8 50.6 43.2 78.3 48.4 3.9.8 7.2 1.5 7.4 1.6.2.2-1.3 2.3-3.3 4.7-1.9 2.4-4.8 7-6.3 10.3l-2.8 5.9-.3 55.8-.3 55.7 2.5 2.5c3.3 3.3 7.9 3.3 11.1 0l2.5-2.4v-53.3c0-51.4.1-53.5 2.1-57.8 2.7-6 16.5-20 19.7-20 6.5 0 24.6-3.5 33.9-6.5 23.1-7.6 47.3-23.7 61.6-41.1 2.9-3.4 5.8-6.3 6.4-6.3 2.6-.2 30.1 9.1 36.8 12.4 14.2 6.9 25.4 18.6 32.5 33.9 4.6 9.7 6.7 19.9 7.4 36.2.6 13.7 4 33.5 9.2 53.7 2 7.6 3.4 14 3.2 14.2-.4.4-70.4 6.5-74.5 6.5H416v-50.1l-2.5-2.4c-3.2-3.3-7.8-3.3-11 0l-2.5 2.4v78.2l2.5 2.4c3.2 3.3 7.8 3.3 11 0 2.1-2 2.5-3.4 2.5-8.3v-5.8l27.8-2.3c15.2-1.2 29.7-2.4 32.2-2.7l4.5-.6-.3 8.6c-.3 8-.2 8.7 2.2 11.1 3.3 3.3 7.9 3.3 11.1 0 2.3-2.2 2.5-3.2 2.5-11.3 0-10 .1-10.2 7.1-10.2 4.6 0 8.9-3.5 8.9-7.1 0-1.1-1.1-5.8-2.5-10.3-3.3-11.1-9-35.1-11-46.5-.9-5.1-2-16.4-2.5-25-1.7-28.9-9.4-46.7-27.8-64.3-13-12.4-18.8-15.2-57.7-27.9-31.7-10.4-34.2-11-37.4-9.9-2.9 1.1-3.6 1-5.3-.7-1.6-1.7-5.7-14.3-5.8-17.9 0-.6 3.2-3.5 7.1-6.4 17.1-12.7 34.5-34.5 41-51.3 5.3-13.8 5.9-19.5 5.9-55 0-34.8 0-34.7-5.6-37.5-1.9-1-2.2-2.3-2.8-14-2.8-53.5-20.9-86.8-56-103.3-20.4-9.5-50.2-13.1-77.8-9.4zm40.7 15.6c12 1.5 24.1 5.1 34 10.1 6 3.2 10.1 6.3 16.7 12.8 7.4 7.5 9.3 10.1 13.6 19.1 7.3 15.1 10.7 29.6 12.6 53.5l.6 7.2-10.8-3.5c-12.2-3.9-34.7-8.6-50.2-10.5-13.8-1.7-56.3-1.7-70 0-16.1 2-34.2 5.8-48.3 10l-12.7 3.9.5-6.6c2.3-25.8 5.4-39 12.7-54 4.3-9.1 6.2-11.6 13.7-19.1 10-9.9 19.5-15.4 33.7-19.5 15.3-4.3 35.7-5.6 53.9-3.4zm6.2 104c11.7 1 39.1 5.4 40.2 6.4.2.3-29 .5-65 .4-40.3 0-64.3-.4-62.4-1 5-1.5 26.6-4.9 36.6-5.8 13.9-1.2 36.1-1.2 50.6 0zM381 145c-5.6 3.8-18.7 10.3-25.2 12.4l-7.7 2.6h-51.8c-44.7 0-52.7-.2-57.4-1.6-6-1.8-19.2-7.9-25.4-11.8l-4-2.5 86.5-.1c58.6 0 86 .4 85 1zm-183.7 10.2 2.7 1.9v13.5c0 13.1-.1 13.4-2.2 13.4-1.2 0-3-.7-4-1.7-1.6-1.4-1.8-3.3-1.8-16 0-11.3.3-14.3 1.3-13.7.6.4 2.4 1.6 4 2.6zm202.5 26.3c-.4 20.5-.6 22.5-3 29.2-8 22.5-29 46.2-51.2 57.8-7.5 3.9-11.5 4.4-13.9 1.7-2.3-2.5-3.7-10.7-3.7-21.3V240l3.8-2.5c2.1-1.4 10.8-5.6 19.4-9.4 24.1-10.8 32.5-16.4 37.5-24.9 2.8-4.7 2.8-4.9 3.1-25.5l.3-20.8 3.7-2.3 3.7-2.3.3 3.6c.2 2 .2 13.5 0 25.6zm-175.5-11.4c13.7 5.8 14.4 5.9 71.7 5.9 57.3 0 58-.1 71.7-5.9 4-1.7 7.4-3.1 7.7-3.1.4 0 .6 6 .6 13.4 0 12.2-.2 13.6-2.2 16.1-3.5 4.5-12.2 9.5-29.8 17.3-18.8 8.3-26.5 13.2-29.7 18.8-3.6 6.2-3.2 24 .9 41.4.6 2.5-9.5 5.4-19.2 5.4-10.3 0-19.2-2.8-31.3-10.1-25.4-15.3-43.6-40.2-47.6-65.4-1.1-6.6-1.5-36.9-.5-36.9.3 0 3.7 1.4 7.7 3.1zM270.6 290c8.9 3.7 18.8 6 26 6 6 0 17.7-2.8 26.1-6.4 4.8-2 7.1-2.4 10.9-2 3.2.4 6.4 0 9.1-1l4.3-1.5 1 4c.5 2.1 1.5 5.7 2 7.9.6 2.1 2.6 6 4.6 8.5 1.9 2.5 3.2 5 2.9 5.5-2 3.3-20.5 14.7-30.8 19-6.3 2.7-8.7 4.6-18.9 14.8L296 356.5l-11.7-11.7c-10.3-10.2-12.7-12.1-19-14.8-11.5-4.8-31.3-17.4-31.3-19.9 0-.5.7-1.4 1.6-2.1 2.8-2.4 6.1-9.4 7.8-16.5.9-3.9 2.1-8.6 2.7-10.6l.9-3.7 8 4.8c4.4 2.7 11.4 6.2 15.6 8zM221 320.3c8.4 8 21 16.4 33.1 22.1 7.1 3.4 10.8 5.9 14.9 10.2 3.6 3.6 4.8 5.4 3.5 5.1-24.8-6.6-40.3-15.2-58.2-32.1l-9.6-9 2.9-1.3c4.9-2.1 6.4-1.5 13.4 5zm163.4-5 2.9 1.3-9.6 9c-17.2 16.3-36.8 27.2-57.2 31.8-2.9.7-2.8.5 2.4-4.8 4.1-4.2 8.2-6.9 16.5-11 12.6-6.1 25.8-15.1 33.1-22.6 5.1-5.2 7-5.8 11.9-3.7z"/><path d="M272.6 34c-4.6.9-8.6 4.9-8.6 8.6 0 1.4 1.2 3.7 2.6 5.1 2.4 2.4 3 2.5 8.5 1.9 6.6-.6 11.3-2.7 12.3-5.1 1.2-3.3.5-6.6-1.9-9-2.5-2.6-5.4-3-12.9-1.5zm-33.8 16.7c-8.9 8.5-17.8 25.3-16.3 31 .8 3.3 4.4 6.3 7.6 6.3 3.9 0 6.5-2.7 9.3-9.9 2.9-7.2 6-11.7 12.2-17.9 5.2-5.1 5.8-8.9 1.9-12.7-4.1-4.2-7.7-3.4-14.7 3.2zM116.1 201.6c-25.3 6.8-41 33.1-34.6 57.9 6.7 25.6 32.9 41.5 58 35 25.6-6.7 41.5-32.9 35-57.8-6.7-25.9-33.3-41.9-58.4-35.1zm21.4 16.2c5.9 2 6 2.5 1.9 12.7-2.4 6.1-2.8 8.4-2.8 17.5s.4 11.4 2.8 17.5c4.1 10.2 4 10.7-1.9 12.7-6.4 2.2-12.6 2.2-19 0-5.9-2-6-2.5-1.9-12.7 2.4-6.1 2.8-8.4 2.8-17.5s-.4-11.4-2.8-17.5c-4.1-10.2-4-10.7 1.9-12.7 2.8-.9 7-1.7 9.5-1.7s6.8.8 9.5 1.7zM103.9 248c0 2.5-.8 7-1.8 10l-1.8 5.5-1.9-4c-1.3-2.8-1.8-6.3-1.8-11.5s.5-8.7 1.8-11.5l1.9-4 1.8 5.5c1 3 1.8 7.5 1.8 10zm54.7-8.3c1.9 6.5 1.5 13.9-1.1 19.9l-1.8 3.9-1.8-5.5c-1-3-1.8-7.3-1.8-9.4-.1-4.9 2.8-15.8 4-15 .5.3 1.6 3 2.5 6.1zm139.9 162.8c-5 4.9-1.5 13.5 5.5 13.5 4.1 0 8-3.9 8-8s-3.9-8-8-8c-1.9 0-4 .9-5.5 2.5zm0 32c-5 4.9-1.5 13.5 5.5 13.5 4.1 0 8-3.9 8-8s-3.9-8-8-8c-1.9 0-4 .9-5.5 2.5zm0 32c-5 4.9-1.5 13.5 5.5 13.5 4.1 0 8-3.9 8-8s-3.9-8-8-8c-1.9 0-4 .9-5.5 2.5z"/></svg>