<svg version="1.0" xmlns="http://www.w3.org/2000/svg" width="682.667" height="682.667" viewBox="0 0 512 512"><path d="M42.5 1C34.8 2.6 27 6.2 20.9 10.8-3.5 29.1-6.8 65 13.7 87.7c2.1 2.3 43.8 41.4 92.8 86.9 49 45.6 89 83.1 89 83.6 0 2.1-52.8 57.3-104.9 109.5-49.4 49.6-59.2 59-60.7 58.2-1-.5-4.4-.9-7.6-.9C6 425-4.6 441.8 2.4 456.5c3.3 6.9 47 50.5 53.6 53.4 14.5 6.5 31-4.2 31-20.2 0-3.2-.4-6.6-.9-7.6-.8-1.5 8.5-11.2 57.7-60.2 51.8-51.6 110.1-107.4 112.2-107.4 2.2 0 59.5 54.8 111.7 106.9 49.6 49.4 59 59.2 58.2 60.7-.5 1-.9 4.4-.9 7.6 0 16.3 16.8 26.9 31.5 19.9 6.9-3.3 50.5-47 53.4-53.6 4.9-10.8.2-23.9-10.3-28.9-4.9-2.2-14.3-2.9-17.5-1.2-1.5.8-11.3-8.6-60.7-58.2-32.5-32.6-66.4-67.2-75.3-76.9-9-9.8-17.2-18-18.2-18.3-4.5-1.5-9.9 2.4-9.9 7.1 0 2.7 3.7 7.1 26.4 31.4l17.9 19.1-15.9 16c-8.7 8.7-16.2 15.8-16.5 15.7-.4-.2-14.6-13.3-31.8-29.3l-31.1-29 2.8-2.6c1.5-1.5 52.4-48.9 113.2-105.3 60.8-56.5 112.4-104.8 114.8-107.4 9.5-10.4 13.7-21.2 13.7-35.7 0-18.3-8-33.7-22.5-43.4C479.7 3 471.4.5 459.5.5c-14.8 0-26 4.4-36.2 14.3-2.8 2.6-41.3 43.7-85.7 91.4C293.2 154 256.5 193 256 193s-37.2-39-81.6-86.8c-44.4-47.7-83-88.9-85.7-91.5-6-5.8-11.3-9-19.3-11.8C62.8.6 48.8-.4 42.5 1zm25.8 17.8c4.6 2.2 8.5 5.3 14.8 11.8C99.7 47.6 245 204.2 245 204.9c0 .5-8.6 10.1-19.2 21.5-19 20.5-19.2 20.6-21.2 18.8-9-8.1-167.1-155.4-174-162.1-12-11.7-15.1-17.9-15.1-30.6 0-8 .4-9.7 3.1-15.5 5-10.4 14.3-18.2 25.1-21 6.8-1.7 17.7-.5 24.6 2.8zm407 0c8 3.7 14.2 10 18.1 18.2 2.7 5.8 3.1 7.5 3.1 15.5s-.4 9.7-3.1 15.5c-3.9 8.2.6 3.8-117.4 113.6-98.6 91.7-159.1 148-181.3 168.8l-12.8 12-16.2-16.2-16.2-16.2 5.6-5.7c3.1-3.2 66.8-71.5 141.5-151.8 74.7-80.3 137-147 138.4-148.3 3.3-2.9 11-7 15.7-8.2 6.8-1.7 17.7-.5 24.6 2.8zM165.5 378l-5.5 5.5-15.7-15.7-15.8-15.8 5.5-5.5 5.5-5.5 15.7 15.7 15.8 15.8-5.5 5.5zm202.3-10.3L352 383.5l-5.5-5.5-5.5-5.5 15.7-15.7 15.8-15.8 5.5 5.5 5.5 5.5-15.7 15.7zM134 378.5l15.5 15.5-37 37-37 37-15.7-15.7L44 436.5l36.7-36.7c20.3-20.3 37-36.8 37.3-36.8.3 0 7.5 7 16 15.5zm297.3 21.3 36.7 36.7-15.8 15.8-15.7 15.7-37-37-37-37 15.5-15.5c8.5-8.5 15.7-15.5 16-15.5.3 0 17 16.5 37.3 36.8zm-382.1 63C70 483.6 72 485.9 72 489c0 4.4-3.3 8-7.4 8-2.6 0-6.1-3.1-26.3-23.3C18.6 454 15 450 15 447.5c0-4.1 3.5-7.5 7.9-7.5 3.2 0 5.2 1.7 26.3 22.8zm445.5-20.6c1.4 1.3 2.3 3.3 2.3 5.2 0 2.6-3.1 6.1-23.3 26.3C454 493.4 450 497 447.5 497c-4.1 0-7.5-3.5-7.5-7.9 0-3.2 1.7-5.2 22.8-26.3C483.6 442 485.9 440 489 440c2.1 0 4.2.8 5.7 2.2z"/><path d="M243.8 1.6c-17.4 4.2-32.6 18.3-37.8 35.2-2.7 8.7-2.7 22.7 0 31.4 5.3 17.1 20.4 31.1 38.2 35.3 26.2 6.2 53.9-9.6 61.8-35.3 2.7-8.7 2.7-22.7 0-31.4-7.9-25.8-35.9-41.6-62.2-35.2zM267.1 17c16 5 25.9 18.6 25.9 35.5S283.1 83 267.1 88c-8 2.5-14.2 2.5-22.2 0-11.5-3.6-19.7-11.4-24-22.9-3-8-2.4-21.4 1.4-28.7 5-9.9 12.4-16.2 22.6-19.5 7.4-2.4 14.5-2.3 22.2.1z"/></svg>