<svg version="1.0" xmlns="http://www.w3.org/2000/svg" width="682.667" height="682.667" viewBox="0 0 512 512"><path d="M79.9 121.4c-5.6 2-9.6 5.3-12.6 10.4-2.4 4-2.8 5.8-2.8 12.3 0 6.7.4 8.1 3 12.5 1.9 3 4.9 6 7.9 7.9l4.9 3h351.4l4.9-3c3-1.9 6-4.9 7.9-7.9 2.7-4.4 3-5.8 3-12.6s-.3-8.2-3-12.6c-1.9-3-4.9-6-7.9-7.9l-4.9-3-174.1-.2c-140.6-.2-174.8 0-177.7 1.1zm0 112c-5.6 2-9.6 5.3-12.6 10.4-2.4 4-2.8 5.8-2.8 12.3 0 6.7.4 8.1 3 12.5 1.9 3 4.9 6 7.9 7.9l4.9 3h351.4l4.9-3c3-1.9 6-4.9 7.9-7.9 2.7-4.4 3-5.8 3-12.6s-.3-8.2-3-12.6c-1.9-3-4.9-6-7.9-7.9l-4.9-3-174.1-.2c-140.6-.2-174.8 0-177.7 1.1zm0 112c-5.6 2-9.6 5.3-12.6 10.4-2.4 4-2.8 5.8-2.8 12.3 0 6.7.4 8.1 3 12.5 1.9 3 4.9 6 7.9 7.9l4.9 3h351.4l4.9-3c3-1.9 6-4.9 7.9-7.9 2.7-4.4 3-5.8 3-12.6s-.3-8.2-3-12.6c-1.9-3-4.9-6-7.9-7.9l-4.9-3-174.1-.2c-140.6-.2-174.8 0-177.7 1.1z"/></svg>