<svg xmlns="http://www.w3.org/2000/svg" xmlns:xlink="http://www.w3.org/1999/xlink" style="width: 0; height: 0; visibility: hidden; position: absolute;" aria-hidden="true"><symbol  viewBox='0 0 16 11' id='arrow'>
    <path d="M15.027 3.5a.577.577 0 0 0 0-.813l-1.482-1.473a.566.566 0 0 0-.804 0L8 5.955l-4.741-4.74a.566.566 0 0 0-.804 0L.973 2.686a.577.577 0 0 0 0 .813l6.625 6.616c.223.223.58.223.804 0L15.027 3.5Z" fill="#fff"></path>
  </symbol><symbol  viewBox='0 0 512 512' id='ball'>
    <path d="M238 .6c-1.9.2-7.8.9-13 1.4-22.1 2.4-48.6 9.6-71 19.2-40.6 17.4-79.8 49-105.8 85.5C12.8 156.4-4.1 217.4 1 277.5c1.7 19.9 7 45.8 10.4 51 2 3.1 7.3 3.4 10.6.7 2.8-2.3 2.8-5 .1-16.4-2.8-11.8-4.9-24.9-5.6-34.3-.3-4.4-.8-10.1-1-12.6l-.5-4.6 12.2-1.2c6.8-.6 14.4-1.4 17-1.8 5.7-.7 6 .1 2.2 6.4-2.9 5.1-2.6 9.3.9 11.8 3.4 2.4 6.6 1.8 10.1-1.8 3.4-3.3 7.6-12.9 7.6-17.3 0-1.6.8-2.7 2.3-3.3 4.9-2 22.2-7 22.6-6.6.2.3-.4 2.5-1.4 5-2.1 5.7-.9 9.7 3.7 11.6 6.3 2.6 11.1-3.4 13.1-16.4l1.1-6.8 10.8-5.5c6-3 11.1-5.4 11.3-5.4.2 0 .1 2.2-.2 4.9-.5 4.4-.3 5.2 2 7.5 4.8 4.8 10.8 2.6 12.8-4.6.6-2.3.9-7 .7-10.4l-.3-6.4 10.5-7.5 10.5-7.5.8 4.3c.9 4.7 3.7 7.7 7.4 7.7 7.5 0 9.9-7.5 6.1-19.8-1-3.3-.9-3.5 8.9-13.5 5.4-5.6 10-10.3 10.3-10.5.3-.1 1.2 1.7 2 4 1.7 4.7 4.8 6.6 9.4 5.4 5.8-1.4 6.5-11 1.5-19.5l-2-3.4 3.6-5.1c2-2.8 5.8-8.4 8.3-12.3 2.6-4 5-7.3 5.3-7.3.4 0 1.2 1.4 1.9 3 1.5 3.7 4.6 6 7.8 6 3.1 0 7.2-4.3 7.2-7.5 0-3.1-2.9-9.1-6.5-13.3l-2.6-3.2 4.4-9.7c2.4-5.4 5-11.5 5.8-13.6l1.3-3.7 4.1 4.5c3 3.2 5 4.5 6.9 4.5 3.3 0 7.6-4.1 7.6-7.3 0-3.3-5.6-11.4-9.6-14-1.9-1.2-3.4-2.7-3.3-3.2 0-.6 1.4-7 3.2-14.4l3.3-13.5 4 3.7c4.9 4.3 8.1 5.7 11.1 4.6 3.3-1.2 5.6-5.4 4.8-8.6-.9-3.6-8.1-10.5-13.5-12.9l-4.2-1.9.6-9.9c.4-5.5.8-10.1.9-10.2.1-.2 5.9.1 12.7.6 48.2 3.7 92.2 20.8 131 50.8 10.6 8.3 30.7 28.2 39 38.7 25.9 32.8 42.9 70.9 49.4 110.5 1.5 9.1 3.8 34.1 3.2 34.7-.1.1-4.7.5-10.2.9l-9.9.6-1.9-4.2c-2.4-5.5-9.3-12.6-12.9-13.5-4.1-1.1-8.1 2.1-8.5 6.7-.3 3 .4 4.4 3.9 8.4l4.2 4.9-13.4 3.2c-7.4 1.8-13.8 3.2-14.4 3.2-.5.1-2-1.4-3.2-3.3-2.6-4-10.7-9.6-14-9.6-3.2 0-7.3 4.3-7.3 7.6 0 1.9 1.3 3.9 4.5 6.9l4.5 4.1-3.7 1.3c-2.1.8-8.2 3.4-13.6 5.8l-9.7 4.4-3.2-2.6c-4.2-3.6-10.2-6.5-13.3-6.5-2.8 0-7.5 4-7.5 6.4 0 3.4 2.2 6.7 5.5 8.3 1.9.9 3.5 1.9 3.5 2.2 0 .3-3.3 2.7-7.3 5.2-3.9 2.6-9.5 6.3-12.3 8.3l-5.1 3.7-3.4-2c-5.6-3.3-12.4-4.4-15.9-2.6-3.4 1.7-4.7 5.5-3.4 9.4.7 1.8 2.2 3 5.2 4.1 2.3.8 4.1 1.7 4 2-.2.3-4.9 4.9-10.5 10.4-10 9.7-10.2 9.8-13.5 8.8-12.2-3.8-19.8-1.4-19.8 6 0 4.1 2.6 6.6 7.6 7.4 4.1.6 4.4.8 3.2 2.4-.7 1-4.1 5.9-7.5 10.7l-6.2 8.9-6-.4c-8-.6-12.8.4-15.7 3.3-3.1 3.1-3.1 6.9.2 10.2 2.3 2.3 3.1 2.5 7.6 2 2.7-.4 4.8-.2 4.6.2-.2.5-2.5 5.6-5.3 11.3l-5 10.4-7.1 1.1c-13 1.9-19.1 6.7-16.5 13.1 1.9 4.6 5.9 5.8 11.6 3.7 2.5-1 4.7-1.6 4.9-1.4.5.4-6 22.4-7 24-.3.5-1.6.9-2.9.9-4.3 0-13.9 4.2-17.2 7.6-3.6 3.5-4.2 6.7-1.8 10.1 2.5 3.6 6.4 3.8 12.2.7 2.8-1.6 5.5-2.6 5.8-2.2.4.4.1 5.4-.6 11.2l-1.3 10.6 2.4 2.5c1.9 2 3.2 2.5 5.9 2.3 5.1-.4 6.9-3.6 8.3-15.1.7-5.3 1.7-9.7 2.2-9.7.6 0 2.6 1.6 4.6 3.5 4.9 4.8 9.1 5.5 12.4 2.2 4-4 3.5-7.9-1.8-13.2-2.4-2.4-6.3-5.3-8.5-6.5-3.7-1.8-4.1-2.3-3.5-4.8 1-4.2 5.6-18.6 6-19.2.3-.2 2.2 1.5 4.3 3.8 4.6 5 8.5 5.6 11.9 1.9 4.2-4.5 2.2-10.4-6.1-17.9l-4.1-3.7 4.9-10.1c2.7-5.5 5.2-10 5.6-10 .4 0 1.2 1.4 1.9 3 1.5 3.6 3.7 5 7.9 5 3.6 0 7.1-3.3 7.1-6.7 0-3-3.5-10-6.6-13.4l-2.4-2.5 3.2-4.5c1.7-2.4 4.9-6.8 7.1-9.8l4-5.4 1.3 3.9c1.6 4.6 3.7 6.4 7.6 6.4 6.9 0 8.8-8.1 4.3-17.8l-2.5-5.4 9.2-8.9 9.3-9 1.2 4.8c1.3 5.1 3.4 7.3 6.9 7.3 6.2 0 8.9-4.5 7.9-12.9-.4-3.1-1.1-6.4-1.7-7.4-.6-1.2-.6-2.3.2-3.2 1.1-1.3 20.4-14.5 21.2-14.5.2 0 .3 2.5.3 5.6 0 5 .3 5.9 2.7 7.7 2.9 2.2 6.5 1.8 9.2-.8 2.4-2.4 3.9-9.5 3.3-15.5l-.6-5.5 4.2-1.9c21.5-9.5 21-9.4 18.1-2.1-3.8 10 6.6 15.8 13 7.2 1.1-1.5 2.7-6.4 3.6-10.9l1.7-8.2 4.9-1.3c8.4-2.3 18.7-4.4 19.1-3.9.2.2-.7 2.7-2.1 5.5-1.4 2.8-2.6 6.2-2.6 7.6 0 5.9 8.5 8.8 12.7 4.2 3-3.2 6.2-9.9 7.4-15.7l1.1-5h5.3c2.9 0 6.7-.3 8.4-.6l3.1-.6v5.8c-.1 14.9-5.5 43-12.1 62-12.4 36-30.7 65.3-57.9 92.4-38.8 38.8-85.1 61.5-141 69.1-5.2.7-18.3 1.3-29 1.3s-23.8-.6-29-1.3c-55.6-7.5-101.9-30.1-140.6-68.6C66 406.2 52.7 387.6 40 361.7c-4.2-8.6-8.5-16.6-9.5-17.7-2.3-2.5-6.6-2.6-9.6-.1-4 3.2-3.1 7.3 5.8 25.3C40 396 54.9 416.7 76.2 437.7c40.9 40.6 90.7 64.8 148.8 72.5 12.3 1.6 49.7 1.6 62 0 80.3-10.6 148.2-55.2 189.5-124.4 17.3-29 29-63.1 33.7-98.8 1.6-12.3 1.6-49.7 0-62-4.7-35.7-16.4-69.8-33.7-98.8C453.9 88.4 423.6 58 386 35.6 357.1 18.3 322.6 6.5 288 2 279.2.8 244.2-.1 238 .6zm7.6 18.5c-.3 1.7-.6 5.5-.6 8.4v5.3l-5 1.1c-5.8 1.2-12.5 4.4-15.7 7.4-4.6 4.2-1.7 12.7 4.2 12.7 1.4 0 4.8-1.2 7.6-2.6 2.8-1.4 5.3-2.3 5.5-2.1.5.4-1.6 10.7-3.9 19.1l-1.3 4.9-8.2 1.7c-4.5.9-9.4 2.5-10.9 3.6-8.6 6.4-2.8 16.8 7.2 13 7.3-2.9 7.4-3.4-2.1 18.1l-1.9 4.2-5.5-.6c-12.9-1.3-21.6 5.4-16.3 12.5 1.8 2.4 2.7 2.7 7.7 2.7 3.1 0 5.6.1 5.6.3 0 .8-13.2 20.1-14.5 21.2-.9.8-2 .8-3.2.2-1-.6-4.3-1.3-7.4-1.7-8.4-1-12.9 1.7-12.9 7.9 0 3.5 2.2 5.6 7.3 6.9l4.7 1.2-8.9 9.2-9 9.2-5.3-2.4c-6.6-3.1-13-3.3-15.8-.5-4.2 4.2-1.4 11.4 5 12.7 1.6.3 2.7.9 2.4 1.4-.3.5-4.6 3.8-9.6 7.4l-9.1 6.5-3.5-3.1c-6.7-5.9-13.2-7.4-17-3.9-4.3 4-2 11.7 4 13.6 1 .3 1.8.9 1.8 1.3 0 .8-18.3 10.1-19.9 10.1-.5 0-1.9-1.3-3.1-3-3-4.3-10.3-9-13.9-9-2 0-3.6.8-5 2.6-3.2 4.1-2.7 7.1 2.1 11.5 2.3 2.1 4 4 3.8 4.3-.6.4-15 5-19.2 6-2.5.6-3 .2-4.8-3.5-1.2-2.2-4.1-6.1-6.5-8.5-5.3-5.2-9.2-5.8-13-1.9-3.6 3.5-3.2 6.8 1.5 11.9 2.2 2.4 4 4.8 4 5.3 0 .9-6 1.8-26.4 3.9l-4.9.5.6-10.3c1.8-27.8 11.1-60.7 25-88.3 11.6-23 25.3-42 43.7-60.6 27.4-27.7 56.9-46.2 93.4-58.8 19.1-6.6 45.2-11.8 60.5-12l7.4-.1-.7 3.1z"></path>
  </symbol><symbol  viewBox='0 0 512 512' id='baseball-glove'>
    <path d="M216.6 1.1C210.1 2.6 201.3 8 196 13.6c-9.8 10.4-13.6 23.4-11.1 38l1.3 6.9-6.1 5.7c-15.6 14.7-39.3 23.3-67.7 24.5l-14.2.6-5.4-5.4c-27.2-27.2-73.4-12.3-79.9 25.7-1.2 6.9-1.2 7.2 12.5 77.4 9.5 48.6 14.3 71.3 15.5 73 2.8 3.9 6.5 5.3 10.5 4 3.7-1.2 6-3.4 7-6.7.4-1.3-4.7-30.2-12.9-72-9.7-49.6-13.4-70.8-13-73.3 1.5-7.6 7.4-15.3 14.9-19.3 3.2-1.7 5.8-2.2 12.1-2.2 9.5 0 13.9 1.9 20.2 8.8 4.9 5.3 3.9 2.4 22.3 68.2 7.7 27.5 14.3 49.1 15.8 52 8.6 15.9 29 25.9 46.3 22.7 12.7-2.4 24-9.6 30.4-19.7 4.4-6.9 6.1-12.1 8.4-27.1 5.5-35 7.3-54.8 7.3-82.9.1-23.2-1.1-39.2-4.3-56.5-1-5.8-1.9-11.8-1.9-13.4 0-9.1 7.5-19.1 16.3-21.5 5-1.4 16-.9 22.9 1.1 4.9 1.4 10.4 6.1 12.8 10.9 3.8 7.3 9.4 34.4 12.2 58.4.7 6.3 1.3 23.2 1.3 39.7V160l-2.5 1.7c-4.8 3.2-16.2 14.8-21 21.2-10.1 13.5-16.8 31.1-19 49.7-4.1 35.7 13.1 72.8 43.4 93.6 7.7 5.3 20.2 11.1 30.1 14 7 2 10.1 2.3 25.5 2.3 20.7-.1 27.6-1.6 43.5-9.5 23.6-11.7 41.6-32.1 50.3-57.1 6.7-19.1 11.8-44 14.2-69.4 1.3-14.4 1.3-58.2-.1-75.7-1.3-16.4-.4-22.1 4.5-27.6 7.8-8.9 19.9-9.5 30.3-1.6 5.8 4.4 7.4 9.1 8.9 25.9 10 116.3-5.4 193-50.9 252.9-13.4 17.6-27.7 30.1-43.6 38.1-4.5 2.2-22.5 9.5-23.6 9.5-.2 0 .1-1.6.6-3.5 2.2-7.8-5-15-12.6-12.5-4.5 1.5-6.5 4.8-8 13.7-.7 4.1-1.5 7.6-1.6 7.7-.5.4-13 2.6-14.7 2.6-.8 0-1-1.8-.5-5.9.5-5.7.4-6.1-2.5-9-7.9-7.9-18.2-.1-18.2 13.8 0 1.6-.3 3.2-.7 3.4-.5.3-4.4.8-8.7 1.2l-7.9.8.9-2.9c1.7-5.9.9-9.5-2.6-12.7-2.8-2.5-3.8-2.9-7.4-2.4-5.3.7-8.1 4-9.7 11.2-.7 3.1-1.6 5.8-2.1 6.1-.5.3-4.7.3-9.4-.1-8.1-.7-8.4-.8-7.7-2.9 1.7-4.6.8-8.8-2.5-11.8-6.3-5.6-13.5-2.9-17 6.5l-2 5.2-6.5-.3c-3.5-.2-7.6-.6-9.1-1l-2.7-.7 2.5-3.4c3.4-4.6 4.1-8.3 2.1-12.1-1.9-3.6-7-6.2-10.6-5.3-3.6.9-8.3 5.8-11.4 11.8l-2.7 5.3-6.8-1.9c-22.4-6.2-31.1-11.2-47.9-27.8-18.6-18.2-31.7-36.1-42.9-58.7-2.3-4.5-5.3-9.1-6.8-10.3-3.9-3.1-8.9-2.8-12.5.8-4.5 4.6-4 8.3 2.9 21.5 12.9 24.6 23.7 39 46.7 62.6 15.5 15.8 17.5 18.3 21.3 26.1 7.1 14.7 9.3 24.6 9.9 44.9l.6 17.5 3.2 3.2 3.3 3.3h114.1c124.7 0 118.6.3 120.9-5.7.6-1.6 1.3-12.1 1.5-24.8.3-21 .4-22.4 3.1-30 4.2-12.3 7.8-17.6 21.8-32.3 15.9-16.8 23.8-26.4 33.3-40.7 26.5-40.1 41.2-86.1 46.6-145.5 2.5-27.2.4-104.3-3.2-122.7-5.3-26.8-36.4-42.2-60.2-29.8-2.7 1.4-5.1 2.4-5.2 2.3-.1-.2-.6-4.6-1.3-9.7-1.4-11.9-5.4-20.5-12.8-27.8-15-14.6-38-16.2-56.4-3.8l-4.9 3.3-1.2-3.6c-2.3-7.2-6.2-13.6-11.3-18.7-9.1-9.1-21.2-13.1-37.3-12.3-7.3.3-10 .9-15.8 3.6-3.8 1.8-8.8 4.8-11.1 6.7l-4.2 3.5-2.1-3.4c-3.4-5.4-11.7-12.5-18.4-15.6-9.2-4.3-27.3-6.2-37.1-3.9zm103.7 30.5c6.4 2.2 12.3 8.3 14.2 14.8 2.1 7.3 6.3 31.4 7.5 43.1.6 5.5 1.3 20.1 1.7 32.4.6 21.5.5 22.4-1.2 21.7-3.8-1.4-20.3-1.8-28.9-.7-4.9.7-12.2 2.3-16.2 3.5l-7.4 2.4v-17.9c0-20.5-1.3-37.7-4.1-56.9-3-19.8-3.3-23.4-1.9-27.6 1.6-4.9 8.4-12.2 13.5-14.5 5.1-2.3 16.4-2.5 22.8-.3zm76.3 23.7c8.1 4.2 11.9 11.1 13.4 24.5 3.4 30 6.1 85.6 5.2 104.1l-.7 12.4-5-7.9c-8.9-14.3-25.6-29.1-40.8-36.5l-4.7-2.3v-16.5c0-9.2-.7-26.2-1.6-37.9-1.3-17.2-1.4-22.1-.5-25.4 1.6-5.3 9.4-13 15.2-15.1 5.3-2 15.1-1.7 19.5.6zm-207.7 58c-4.7 3.8-25.4 12.9-26.3 11.6-.1-.2-1.1-5.9-2.2-12.5l-2-12.2 5.5-2.2c6.3-2.6 16.8-8.5 22.1-12.5l3.5-2.6.9 14.2.9 14.2-2.4 2zm-49.4-5.1c1.5 6.8 3.2 20.4 2.6 21.1-.4.4-7.2 1-15.2 1.4l-14.4.6-2.7-10c-1.6-5.5-2.8-10.5-2.8-11.2 0-.7 2.3-1.1 6.3-1.2 3.4 0 9.8-.6 14.2-1.3 11.4-1.9 11.4-1.9 12 .6zm49.5 41.5c-.7 7-1.5 13.2-1.7 13.7-.8 1.2-16.7 8.6-18.6 8.6-1.1 0-1.6-2.4-2.1-11.3-.4-6.1-.9-12.1-1.2-13.2-.4-1.8.6-2.4 7.8-4.8 4.6-1.5 10.1-3.6 12.3-4.6 2.2-1 4.2-1.7 4.3-1.5.2.1-.1 6-.8 13.1zm-43.5.5c1.2 3.4 2.1 25.3 1.1 26-.6.4-5.6.8-11.2.8h-10.1l-3.5-12.8-3.4-12.7 10.5-.7c5.8-.4 11.5-.9 12.6-1.1 1.1-.3 2.4-.5 2.8-.6.4 0 1 .5 1.2 1.1zM347 165c9.6 2.7 20.8 8.6 28.9 15.2l6.5 5.2-3 2c-6.2 4.3-17.2 16.4-20.6 22.6-16 28.9-8.5 66 17.1 85.2l6.1 4.6-5.8 5.2c-7 6.3-22.9 14.2-32.9 16.4-10.1 2.2-25.8 2.1-36.1-.4-8.1-2-19.4-6.9-25.6-11.3-4.6-3.1-11.6-9-11.6-9.7 0-.3 2.6-2.4 5.8-4.7 10.3-7.6 18.5-19.3 22.9-32.8 3.3-10.2 3.7-26.3.9-36.5-3.8-14-13.5-28.4-24.7-36.5-4.9-3.7-5-3.8-3.2-5.7 2.8-3.2 13.2-10.3 19.9-13.6 6.3-3.2 14.4-5.8 22.2-7.2 7.5-1.4 24.8-.3 33.2 2zm-163 23.2c0 3.5-3.5 18.2-5.1 21.4-1.9 4-8.2 10.4-10.1 10.4-.5 0-.8-6-.8-13.4v-13.3l7.3-2.5c7.6-2.6 8.7-3 8.7-2.6zM148 209v12.1l-2.7-1.5c-3.2-1.7-8.5-7.1-10.2-10.4-1-1.8-4-10.9-4.1-12 0-.1 3.8-.2 8.5-.2h8.5v12zm120.7 1.6c9.9 10.2 14.7 25.3 12.3 39.1-2.1 12.5-8.6 23.4-18.4 30.5-2.1 1.5-4.3 2.8-4.8 2.8-1.4 0-6.6-11.8-8.9-20.5-1.6-6.1-2.1-10.8-2.1-20 0-13.4 1.9-22.4 7.1-33.9l3-6.7 3.3 1.7c1.8.9 5.6 4.1 8.5 7zm129.1-1.8c9.7 21 9.8 46.6.3 67.5-1.8 4.1-3.6 6.7-4.5 6.7-3.1 0-15.2-12.7-18.4-19.3-10-20.3-4.2-45.1 13.7-58.3 2.5-1.8 4.9-3.4 5.2-3.4.3 0 2 3.1 3.7 6.8zm-20.9 241.3c-1.6 5.8-2.2 11.1-2.6 24.6l-.6 17.3H171.3l-.6-11.3c-.4-7.4-1.6-15.2-3.7-23.2-1.6-6.6-3-12-3-12.1 0 0 4.2 1.1 9.4 2.5l9.5 2.6.6 5.9c1 8 4.5 12.1 10.5 12.1 5.5 0 10-4.6 10-10.1v-3.6l4.3.6c2.3.3 6.6.8 9.5 1.2 3.3.4 5.2 1.1 5.2 2 0 .7.5 3.7 1.1 6.6 1.6 7.1 5.3 10.8 10.9 10.8 7 0 11.2-6 9.2-13.4-1-3.5-1-3.6 1.7-3.6 1.6 0 6.2.3 10.4.6l7.6.7 1.7 5.1c2.3 7.2 5.8 10.6 10.6 10.6 2.1 0 5-.7 6.3-1.6 3.2-2.1 4.9-7.2 3.5-10.9-.6-1.5-.9-2.9-.8-3 .2-.2 4.4-.6 9.3-1l9-.7 1.9 4.6c2.3 5.9 5.7 8.6 10.8 8.6 6.6 0 11.2-6.5 9-12.8l-1-2.9 8.3-1.4 8.4-1.5 1.7 3.9c2.2 4.7 6.7 8.7 10 8.7 7.1 0 11.6-6.2 9.6-13.4-.6-2.2-1-4.1-.9-4.2 1.7-.7 17.3-6 17.5-5.9.1.1-.7 3.6-1.9 7.6z"></path><path d="M137.6 253.1c-3.6 4.2-3.3 8.1 1.2 21.4 3.5 10.3 3.9 11.1 7.4 12.8 3.2 1.6 4.3 1.7 7.3.7 7.5-2.5 8.1-7.1 3-23.6-4-12.7-5.4-14.4-12.1-14.4-3.5 0-4.7.5-6.8 3.1zm-82.5 36.3c-9 5-5 18.6 5.4 18.6 1.4 0 3.9-1.3 5.7-2.9 8.6-7.7-1-21.3-11.1-15.7zm108.7 16.2c-3.5 1.8-4.8 4.3-4.8 8.9 0 4 1.2 6 9.7 16.6 7.7 9.6 12.7 11.2 18.5 6 4.4-3.9 4.5-9.2.3-14.6-1.7-2-5.1-6.5-7.7-9.8-6.6-8.6-10.3-10.3-16-7.1zm41.9 41.5c-1.1.6-2.5 2.7-3.3 4.6-1.9 4.4-.5 9.4 3.4 12.2 5.2 3.7 21 11.1 23.7 11.1 3.6 0 9.5-5.9 9.5-9.4 0-5.4-2-7.4-13.7-13.6-11.4-6-15.7-7.1-19.6-4.9zm56 21c-2.8 1.6-4.9 6.8-4.3 10.4 1 5.2 4.3 7.4 13.7 9 13.1 2.3 18.4 2.3 21.6-.1 3.7-2.8 5-7.4 3.3-11.4-1.9-4.6-4.3-5.7-15.9-7.4-12.1-1.8-15.9-1.9-18.4-.5z"></path>
  </symbol><symbol  viewBox='0 0 512 512' id='baseball-player'>
    <path d="M24.5.9C15.3 3.3 7.2 9.9 3 18.5l-2.5 5-.3 84-.3 83.9L4 271.5C7.8 347 8 355 8 413.6v62.2L5 479c-7.9 8.5-5.9 23.1 4.3 29.8 4 2.7 4.1 2.7 22.7 2.7s18.7 0 22.7-2.7c10.2-6.7 12.2-21.3 4.2-30l-2.9-3v-62.2c0-58.6.2-66.6 4-142.1l4.1-80.1-.3-83.9-.3-84-3.4-6.3c-3.8-7-7-10.1-14.3-13.8C40.4.7 29.9-.6 24.5.9zm16.3 17.8c1.4 1 3.5 3.2 4.6 4.7 2.1 2.7 2.1 3.7 2.4 83.4.3 80.4.3 80.9-3.3 156.7-2 41.8-3.8 77-4.1 78.2-.4 2.2-.9 2.3-8.4 2.3s-8-.1-8.4-2.3c-.3-1.2-2.1-36-4.1-77.2-3.5-72.8-3.6-77.4-3.5-155.2 0-54.3.3-81.1 1.1-83 1.4-3.7 4.7-7.2 8.4-8.9 4-1.9 11.9-1.2 15.3 1.3zM40 368v8H24v-16h16v8zm0 32v8H24v-16h16v8zm0 32v8H24v-16h16v8zm0 32v8H24v-16h16v8zm7.4 26.2c.8 1.3.8 2.3 0 3.5-1 1.6-3 1.8-14.9 2.1-14.1.3-16.5-.3-16.5-3.7 0-3.7 2-4.2 16.4-3.9 11.9.3 14 .5 15 2zM273.8 1.5C226.5 8 197.9 35.2 188 83.3c-2 9.9-4 28.5-4 38 0 5.2-.2 5.9-2.6 6.9-5 2.3-5.4 4.5-5.4 32.9v26.2l6.3 6.4 6.4 6.3H201v3.3c0 1.9.9 6.8 1.9 11 4.2 16.3 11.7 30.2 24 44.5l6.3 7.3-3.4 13.7c-2 8.5-4.1 14.6-5.4 16.1-1.9 2.2-2.3 2.3-5.5 1.1-3.3-1.2-5.3-.6-37.4 9.9-38.9 12.8-44.5 15.5-57.3 27.6-18.6 17.5-26.5 35.4-28.2 64.2-1.4 22.8-5 42.3-13 70.1-1.7 5.6-3 11.2-3 12.3 0 3.5 4.4 6.9 8.9 6.9 7 0 7.1.2 7.1 10.2 0 8.1.2 9.1 2.5 11.3 3.2 3.3 7.8 3.3 11 0 2.3-2.2 2.5-3.2 2.5-11 0-4.7.1-8.5.3-8.5.1 0 13.5 1.1 29.7 2.5s30.5 2.5 31.7 2.5c2.1 0 2.3.4 2.3 6 0 5.1.4 6.5 2.5 8.5 3.2 3.3 7.8 3.3 11 0l2.5-2.4v-78.2l-2.5-2.4c-3.2-3.3-7.8-3.3-11 0l-2.5 2.4V454c0 23.1-.1 25-1.7 25-3.5 0-74.8-6.2-75.1-6.5-.2-.2 1.2-6.6 3.2-14.2 5.2-20.2 8.6-40 9.2-53.7.7-16.4 2.8-26.5 7.5-36.5 6.6-14.2 16.9-25.2 30.9-32.9 4.7-2.6 20.4-8.2 34.7-12.3 4.1-1.2 4.3-1.1 6.5 1.7 17.7 22.8 50.6 43.2 78.3 48.4 3.9.8 7.2 1.5 7.4 1.6.2.2-1.3 2.3-3.3 4.7-1.9 2.4-4.8 7-6.3 10.3l-2.8 5.9-.3 55.8-.3 55.7 2.5 2.5c3.3 3.3 7.9 3.3 11.1 0l2.5-2.4v-53.3c0-51.4.1-53.5 2.1-57.8 2.7-6 16.5-20 19.7-20 6.5 0 24.6-3.5 33.9-6.5 23.1-7.6 47.3-23.7 61.6-41.1 2.9-3.4 5.8-6.3 6.4-6.3 2.6-.2 30.1 9.1 36.8 12.4 14.2 6.9 25.4 18.6 32.5 33.9 4.6 9.7 6.7 19.9 7.4 36.2.6 13.7 4 33.5 9.2 53.7 2 7.6 3.4 14 3.2 14.2-.4.4-70.4 6.5-74.5 6.5H416v-50.1l-2.5-2.4c-3.2-3.3-7.8-3.3-11 0l-2.5 2.4v78.2l2.5 2.4c3.2 3.3 7.8 3.3 11 0 2.1-2 2.5-3.4 2.5-8.3v-5.8l27.8-2.3c15.2-1.2 29.7-2.4 32.2-2.7l4.5-.6-.3 8.6c-.3 8-.2 8.7 2.2 11.1 3.3 3.3 7.9 3.3 11.1 0 2.3-2.2 2.5-3.2 2.5-11.3 0-10 .1-10.2 7.1-10.2 4.6 0 8.9-3.5 8.9-7.1 0-1.1-1.1-5.8-2.5-10.3-3.3-11.1-9-35.1-11-46.5-.9-5.1-2-16.4-2.5-25-1.7-28.9-9.4-46.7-27.8-64.3-13-12.4-18.8-15.2-57.7-27.9-31.7-10.4-34.2-11-37.4-9.9-2.9 1.1-3.6 1-5.3-.7-1.6-1.7-5.7-14.3-5.8-17.9 0-.6 3.2-3.5 7.1-6.4 17.1-12.7 34.5-34.5 41-51.3 5.3-13.8 5.9-19.5 5.9-55 0-34.8 0-34.7-5.6-37.5-1.9-1-2.2-2.3-2.8-14-2.8-53.5-20.9-86.8-56-103.3-20.4-9.5-50.2-13.1-77.8-9.4zm40.7 15.6c12 1.5 24.1 5.1 34 10.1 6 3.2 10.1 6.3 16.7 12.8 7.4 7.5 9.3 10.1 13.6 19.1 7.3 15.1 10.7 29.6 12.6 53.5l.6 7.2-10.8-3.5c-12.2-3.9-34.7-8.6-50.2-10.5-13.8-1.7-56.3-1.7-70 0-16.1 2-34.2 5.8-48.3 10l-12.7 3.9.5-6.6c2.3-25.8 5.4-39 12.7-54 4.3-9.1 6.2-11.6 13.7-19.1 10-9.9 19.5-15.4 33.7-19.5 15.3-4.3 35.7-5.6 53.9-3.4zm6.2 104c11.7 1 39.1 5.4 40.2 6.4.2.3-29 .5-65 .4-40.3 0-64.3-.4-62.4-1 5-1.5 26.6-4.9 36.6-5.8 13.9-1.2 36.1-1.2 50.6 0zM381 145c-5.6 3.8-18.7 10.3-25.2 12.4l-7.7 2.6h-51.8c-44.7 0-52.7-.2-57.4-1.6-6-1.8-19.2-7.9-25.4-11.8l-4-2.5 86.5-.1c58.6 0 86 .4 85 1zm-183.7 10.2 2.7 1.9v13.5c0 13.1-.1 13.4-2.2 13.4-1.2 0-3-.7-4-1.7-1.6-1.4-1.8-3.3-1.8-16 0-11.3.3-14.3 1.3-13.7.6.4 2.4 1.6 4 2.6zm202.5 26.3c-.4 20.5-.6 22.5-3 29.2-8 22.5-29 46.2-51.2 57.8-7.5 3.9-11.5 4.4-13.9 1.7-2.3-2.5-3.7-10.7-3.7-21.3V240l3.8-2.5c2.1-1.4 10.8-5.6 19.4-9.4 24.1-10.8 32.5-16.4 37.5-24.9 2.8-4.7 2.8-4.9 3.1-25.5l.3-20.8 3.7-2.3 3.7-2.3.3 3.6c.2 2 .2 13.5 0 25.6zm-175.5-11.4c13.7 5.8 14.4 5.9 71.7 5.9 57.3 0 58-.1 71.7-5.9 4-1.7 7.4-3.1 7.7-3.1.4 0 .6 6 .6 13.4 0 12.2-.2 13.6-2.2 16.1-3.5 4.5-12.2 9.5-29.8 17.3-18.8 8.3-26.5 13.2-29.7 18.8-3.6 6.2-3.2 24 .9 41.4.6 2.5-9.5 5.4-19.2 5.4-10.3 0-19.2-2.8-31.3-10.1-25.4-15.3-43.6-40.2-47.6-65.4-1.1-6.6-1.5-36.9-.5-36.9.3 0 3.7 1.4 7.7 3.1zM270.6 290c8.9 3.7 18.8 6 26 6 6 0 17.7-2.8 26.1-6.4 4.8-2 7.1-2.4 10.9-2 3.2.4 6.4 0 9.1-1l4.3-1.5 1 4c.5 2.1 1.5 5.7 2 7.9.6 2.1 2.6 6 4.6 8.5 1.9 2.5 3.2 5 2.9 5.5-2 3.3-20.5 14.7-30.8 19-6.3 2.7-8.7 4.6-18.9 14.8L296 356.5l-11.7-11.7c-10.3-10.2-12.7-12.1-19-14.8-11.5-4.8-31.3-17.4-31.3-19.9 0-.5.7-1.4 1.6-2.1 2.8-2.4 6.1-9.4 7.8-16.5.9-3.9 2.1-8.6 2.7-10.6l.9-3.7 8 4.8c4.4 2.7 11.4 6.2 15.6 8zM221 320.3c8.4 8 21 16.4 33.1 22.1 7.1 3.4 10.8 5.9 14.9 10.2 3.6 3.6 4.8 5.4 3.5 5.1-24.8-6.6-40.3-15.2-58.2-32.1l-9.6-9 2.9-1.3c4.9-2.1 6.4-1.5 13.4 5zm163.4-5 2.9 1.3-9.6 9c-17.2 16.3-36.8 27.2-57.2 31.8-2.9.7-2.8.5 2.4-4.8 4.1-4.2 8.2-6.9 16.5-11 12.6-6.1 25.8-15.1 33.1-22.6 5.1-5.2 7-5.8 11.9-3.7z"></path><path d="M272.6 34c-4.6.9-8.6 4.9-8.6 8.6 0 1.4 1.2 3.7 2.6 5.1 2.4 2.4 3 2.5 8.5 1.9 6.6-.6 11.3-2.7 12.3-5.1 1.2-3.3.5-6.6-1.9-9-2.5-2.6-5.4-3-12.9-1.5zm-33.8 16.7c-8.9 8.5-17.8 25.3-16.3 31 .8 3.3 4.4 6.3 7.6 6.3 3.9 0 6.5-2.7 9.3-9.9 2.9-7.2 6-11.7 12.2-17.9 5.2-5.1 5.8-8.9 1.9-12.7-4.1-4.2-7.7-3.4-14.7 3.2zM116.1 201.6c-25.3 6.8-41 33.1-34.6 57.9 6.7 25.6 32.9 41.5 58 35 25.6-6.7 41.5-32.9 35-57.8-6.7-25.9-33.3-41.9-58.4-35.1zm21.4 16.2c5.9 2 6 2.5 1.9 12.7-2.4 6.1-2.8 8.4-2.8 17.5s.4 11.4 2.8 17.5c4.1 10.2 4 10.7-1.9 12.7-6.4 2.2-12.6 2.2-19 0-5.9-2-6-2.5-1.9-12.7 2.4-6.1 2.8-8.4 2.8-17.5s-.4-11.4-2.8-17.5c-4.1-10.2-4-10.7 1.9-12.7 2.8-.9 7-1.7 9.5-1.7s6.8.8 9.5 1.7zM103.9 248c0 2.5-.8 7-1.8 10l-1.8 5.5-1.9-4c-1.3-2.8-1.8-6.3-1.8-11.5s.5-8.7 1.8-11.5l1.9-4 1.8 5.5c1 3 1.8 7.5 1.8 10zm54.7-8.3c1.9 6.5 1.5 13.9-1.1 19.9l-1.8 3.9-1.8-5.5c-1-3-1.8-7.3-1.8-9.4-.1-4.9 2.8-15.8 4-15 .5.3 1.6 3 2.5 6.1zm139.9 162.8c-5 4.9-1.5 13.5 5.5 13.5 4.1 0 8-3.9 8-8s-3.9-8-8-8c-1.9 0-4 .9-5.5 2.5zm0 32c-5 4.9-1.5 13.5 5.5 13.5 4.1 0 8-3.9 8-8s-3.9-8-8-8c-1.9 0-4 .9-5.5 2.5zm0 32c-5 4.9-1.5 13.5 5.5 13.5 4.1 0 8-3.9 8-8s-3.9-8-8-8c-1.9 0-4 .9-5.5 2.5z"></path>
  </symbol><symbol  viewBox='0 0 512 512' id='baseball'>
    <path d="M42.5 1C34.8 2.6 27 6.2 20.9 10.8-3.5 29.1-6.8 65 13.7 87.7c2.1 2.3 43.8 41.4 92.8 86.9 49 45.6 89 83.1 89 83.6 0 2.1-52.8 57.3-104.9 109.5-49.4 49.6-59.2 59-60.7 58.2-1-.5-4.4-.9-7.6-.9C6 425-4.6 441.8 2.4 456.5c3.3 6.9 47 50.5 53.6 53.4 14.5 6.5 31-4.2 31-20.2 0-3.2-.4-6.6-.9-7.6-.8-1.5 8.5-11.2 57.7-60.2 51.8-51.6 110.1-107.4 112.2-107.4 2.2 0 59.5 54.8 111.7 106.9 49.6 49.4 59 59.2 58.2 60.7-.5 1-.9 4.4-.9 7.6 0 16.3 16.8 26.9 31.5 19.9 6.9-3.3 50.5-47 53.4-53.6 4.9-10.8.2-23.9-10.3-28.9-4.9-2.2-14.3-2.9-17.5-1.2-1.5.8-11.3-8.6-60.7-58.2-32.5-32.6-66.4-67.2-75.3-76.9-9-9.8-17.2-18-18.2-18.3-4.5-1.5-9.9 2.4-9.9 7.1 0 2.7 3.7 7.1 26.4 31.4l17.9 19.1-15.9 16c-8.7 8.7-16.2 15.8-16.5 15.7-.4-.2-14.6-13.3-31.8-29.3l-31.1-29 2.8-2.6c1.5-1.5 52.4-48.9 113.2-105.3 60.8-56.5 112.4-104.8 114.8-107.4 9.5-10.4 13.7-21.2 13.7-35.7 0-18.3-8-33.7-22.5-43.4C479.7 3 471.4.5 459.5.5c-14.8 0-26 4.4-36.2 14.3-2.8 2.6-41.3 43.7-85.7 91.4C293.2 154 256.5 193 256 193s-37.2-39-81.6-86.8c-44.4-47.7-83-88.9-85.7-91.5-6-5.8-11.3-9-19.3-11.8C62.8.6 48.8-.4 42.5 1zm25.8 17.8c4.6 2.2 8.5 5.3 14.8 11.8C99.7 47.6 245 204.2 245 204.9c0 .5-8.6 10.1-19.2 21.5-19 20.5-19.2 20.6-21.2 18.8-9-8.1-167.1-155.4-174-162.1-12-11.7-15.1-17.9-15.1-30.6 0-8 .4-9.7 3.1-15.5 5-10.4 14.3-18.2 25.1-21 6.8-1.7 17.7-.5 24.6 2.8zm407 0c8 3.7 14.2 10 18.1 18.2 2.7 5.8 3.1 7.5 3.1 15.5s-.4 9.7-3.1 15.5c-3.9 8.2.6 3.8-117.4 113.6-98.6 91.7-159.1 148-181.3 168.8l-12.8 12-16.2-16.2-16.2-16.2 5.6-5.7c3.1-3.2 66.8-71.5 141.5-151.8 74.7-80.3 137-147 138.4-148.3 3.3-2.9 11-7 15.7-8.2 6.8-1.7 17.7-.5 24.6 2.8zM165.5 378l-5.5 5.5-15.7-15.7-15.8-15.8 5.5-5.5 5.5-5.5 15.7 15.7 15.8 15.8-5.5 5.5zm202.3-10.3L352 383.5l-5.5-5.5-5.5-5.5 15.7-15.7 15.8-15.8 5.5 5.5 5.5 5.5-15.7 15.7zM134 378.5l15.5 15.5-37 37-37 37-15.7-15.7L44 436.5l36.7-36.7c20.3-20.3 37-36.8 37.3-36.8.3 0 7.5 7 16 15.5zm297.3 21.3 36.7 36.7-15.8 15.8-15.7 15.7-37-37-37-37 15.5-15.5c8.5-8.5 15.7-15.5 16-15.5.3 0 17 16.5 37.3 36.8zm-382.1 63C70 483.6 72 485.9 72 489c0 4.4-3.3 8-7.4 8-2.6 0-6.1-3.1-26.3-23.3C18.6 454 15 450 15 447.5c0-4.1 3.5-7.5 7.9-7.5 3.2 0 5.2 1.7 26.3 22.8zm445.5-20.6c1.4 1.3 2.3 3.3 2.3 5.2 0 2.6-3.1 6.1-23.3 26.3C454 493.4 450 497 447.5 497c-4.1 0-7.5-3.5-7.5-7.9 0-3.2 1.7-5.2 22.8-26.3C483.6 442 485.9 440 489 440c2.1 0 4.2.8 5.7 2.2z"></path><path d="M243.8 1.6c-17.4 4.2-32.6 18.3-37.8 35.2-2.7 8.7-2.7 22.7 0 31.4 5.3 17.1 20.4 31.1 38.2 35.3 26.2 6.2 53.9-9.6 61.8-35.3 2.7-8.7 2.7-22.7 0-31.4-7.9-25.8-35.9-41.6-62.2-35.2zM267.1 17c16 5 25.9 18.6 25.9 35.5S283.1 83 267.1 88c-8 2.5-14.2 2.5-22.2 0-11.5-3.6-19.7-11.4-24-22.9-3-8-2.4-21.4 1.4-28.7 5-9.9 12.4-16.2 22.6-19.5 7.4-2.4 14.5-2.3 22.2.1z"></path>
  </symbol><symbol  viewBox='0 0 26 28' id='chain'>
    <path d="M22.75 19c0-.406-.156-.781-.438-1.062l-3.25-3.25A1.516 1.516 0 0 0 18 14.25c-.453 0-.812.172-1.125.5.516.516 1.125.953 1.125 1.75a1.5 1.5 0 0 1-1.5 1.5c-.797 0-1.234-.609-1.75-1.125-.328.313-.516.672-.516 1.141 0 .391.156.781.438 1.062l3.219 3.234c.281.281.672.422 1.062.422s.781-.141 1.062-.406l2.297-2.281A1.48 1.48 0 0 0 22.75 19zM11.766 7.984a1.51 1.51 0 0 0-.438-1.062L8.109 3.688c-.281-.281-.672-.438-1.062-.438s-.781.156-1.062.422L3.688 5.953a1.484 1.484 0 0 0 0 2.109l3.25 3.25A1.5 1.5 0 0 0 8 11.734c.453 0 .812-.156 1.125-.484C8.609 10.734 8 10.297 8 9.5A1.5 1.5 0 0 1 9.5 8c.797 0 1.234.609 1.75 1.125.328-.313.516-.672.516-1.141zM25.75 19a4.468 4.468 0 0 1-1.328 3.172l-2.297 2.281a4.466 4.466 0 0 1-3.172 1.297 4.44 4.44 0 0 1-3.187-1.328l-3.219-3.234a4.466 4.466 0 0 1-1.297-3.172c0-1.234.5-2.406 1.375-3.266l-1.375-1.375A4.539 4.539 0 0 1 8 14.75a4.514 4.514 0 0 1-3.187-1.313l-3.25-3.25A4.454 4.454 0 0 1 .25 7c0-1.188.484-2.344 1.328-3.172l2.297-2.281A4.466 4.466 0 0 1 7.047.25a4.44 4.44 0 0 1 3.187 1.328l3.219 3.234a4.466 4.466 0 0 1 1.297 3.172c0 1.234-.5 2.406-1.375 3.266l1.375 1.375A4.539 4.539 0 0 1 18 11.25c1.188 0 2.344.469 3.187 1.313l3.25 3.25A4.454 4.454 0 0 1 25.75 19z"></path>
  </symbol><symbol  viewBox='0 0 32 32' id='checkmark'>
    <path d="M27 4 12 19l-7-7-5 5 12 12L32 9z" fill="#b7bbc7"></path>
  </symbol><symbol  viewBox='0 0 16 28' id='facebook'>
    <path d="M14.984.187v4.125h-2.453c-1.922 0-2.281.922-2.281 2.25v2.953h4.578l-.609 4.625H10.25v11.859H5.469V14.14H1.485V9.515h3.984V6.109C5.469 2.156 7.891 0 11.422 0c1.687 0 3.141.125 3.563.187z"></path>
  </symbol><symbol  viewBox='0 0 32 32' id='instagram'>
    <path d="M16 2.881c4.275 0 4.781.019 6.462.094 1.563.069 2.406.331 2.969.55a4.952 4.952 0 0 1 1.837 1.194 5.015 5.015 0 0 1 1.2 1.838c.219.563.481 1.412.55 2.969.075 1.688.094 2.194.094 6.463s-.019 4.781-.094 6.463c-.069 1.563-.331 2.406-.55 2.969a4.94 4.94 0 0 1-1.194 1.837 5.02 5.02 0 0 1-1.837 1.2c-.563.219-1.413.481-2.969.55-1.688.075-2.194.094-6.463.094s-4.781-.019-6.463-.094c-1.563-.069-2.406-.331-2.969-.55a4.952 4.952 0 0 1-1.838-1.194 5.02 5.02 0 0 1-1.2-1.837c-.219-.563-.481-1.413-.55-2.969-.075-1.688-.094-2.194-.094-6.463s.019-4.781.094-6.463c.069-1.563.331-2.406.55-2.969a4.964 4.964 0 0 1 1.194-1.838 5.015 5.015 0 0 1 1.838-1.2c.563-.219 1.412-.481 2.969-.55 1.681-.075 2.188-.094 6.463-.094zM16 0c-4.344 0-4.887.019-6.594.094-1.7.075-2.869.35-3.881.744-1.056.412-1.95.956-2.837 1.85a7.833 7.833 0 0 0-1.85 2.831C.444 6.538.169 7.7.094 9.4.019 11.113 0 11.656 0 16s.019 4.887.094 6.594c.075 1.7.35 2.869.744 3.881.413 1.056.956 1.95 1.85 2.837a7.82 7.82 0 0 0 2.831 1.844c1.019.394 2.181.669 3.881.744 1.706.075 2.25.094 6.594.094s4.888-.019 6.594-.094c1.7-.075 2.869-.35 3.881-.744 1.05-.406 1.944-.956 2.831-1.844s1.438-1.781 1.844-2.831c.394-1.019.669-2.181.744-3.881.075-1.706.094-2.25.094-6.594s-.019-4.887-.094-6.594c-.075-1.7-.35-2.869-.744-3.881a7.506 7.506 0 0 0-1.831-2.844A7.82 7.82 0 0 0 26.482.843C25.463.449 24.301.174 22.601.099c-1.712-.081-2.256-.1-6.6-.1z"></path><path d="M16 7.781c-4.537 0-8.219 3.681-8.219 8.219s3.681 8.219 8.219 8.219 8.219-3.681 8.219-8.219A8.221 8.221 0 0 0 16 7.781zm0 13.55a5.331 5.331 0 1 1 0-10.663 5.331 5.331 0 0 1 0 10.663zM26.462 7.456a1.919 1.919 0 1 1-3.838 0 1.919 1.919 0 0 1 3.838 0z"></path>
  </symbol><symbol  viewBox='0 0 512 512' id='left-arrow'>
    <path d="M351.5 2c-4.4 1.8-18.9 15.9-122.8 119.7-95.2 95.1-118.4 118.8-120.3 122.8-1.8 3.7-2.4 6.7-2.4 11.5 0 13.2-7.4 5 122.3 134.6 112.3 112.3 117.4 117.3 123 119.3 7.3 2.7 13.1 2.7 20.4-.1 4.8-1.7 7.7-4 17.4-13.7 14.4-14.3 16.3-17.7 16.4-28.6 0-5.8-.5-9.1-1.9-12-1.3-2.7-33.3-35.5-99.5-101.8L206.5 256l97.7-97.8c53.7-53.7 98.4-99.3 99.4-101.2.9-1.9 1.9-6.7 2.2-10.6.7-11-2-16-16.6-30.5-9.8-9.7-12.7-11.9-17.5-13.7-7.1-2.7-13.6-2.7-20.2-.2z" fill="#fff"></path>
  </symbol><symbol  viewBox='0 0 32 32' id='location'>
    <path d="M16 0C10.477 0 6 4.477 6 10c0 10 10 22 10 22s10-12 10-22c0-5.523-4.477-10-10-10zm0 16a6 6 0 1 1 0-12 6 6 0 0 1 0 12z" fill="var(--fill-path, white)"></path>
  </symbol><symbol  viewBox='0 0 32 32' id='location1'>
    <path d="M16 0C10.477 0 6 4.477 6 10c0 10 10 22 10 22s10-12 10-22c0-5.523-4.477-10-10-10zm0 16a6 6 0 1 1 0-12 6 6 0 0 1 0 12z" fill="var(--fill-path, black)"></path>
  </symbol><symbol  viewBox='0 0 32 32' id='mail-envelope-closed'>
    <path d="m7.077 10.923.808-.808L16.5 17.5l8.615-7.385.808.808L16.5 19l-9.423-8.077zM6.004 8A2 2 0 0 0 4 9.994v12.012C4 23.107 4.89 24 6.004 24h20.993a2 2 0 0 0 2.004-1.994V9.994c0-1.101-.89-1.994-2.004-1.994H6.004z"></path>
  </symbol><symbol  viewBox='0 0 512 512' id='menu'>
    <path d="M79.9 121.4c-5.6 2-9.6 5.3-12.6 10.4-2.4 4-2.8 5.8-2.8 12.3 0 6.7.4 8.1 3 12.5 1.9 3 4.9 6 7.9 7.9l4.9 3h351.4l4.9-3c3-1.9 6-4.9 7.9-7.9 2.7-4.4 3-5.8 3-12.6s-.3-8.2-3-12.6c-1.9-3-4.9-6-7.9-7.9l-4.9-3-174.1-.2c-140.6-.2-174.8 0-177.7 1.1zm0 112c-5.6 2-9.6 5.3-12.6 10.4-2.4 4-2.8 5.8-2.8 12.3 0 6.7.4 8.1 3 12.5 1.9 3 4.9 6 7.9 7.9l4.9 3h351.4l4.9-3c3-1.9 6-4.9 7.9-7.9 2.7-4.4 3-5.8 3-12.6s-.3-8.2-3-12.6c-1.9-3-4.9-6-7.9-7.9l-4.9-3-174.1-.2c-140.6-.2-174.8 0-177.7 1.1zm0 112c-5.6 2-9.6 5.3-12.6 10.4-2.4 4-2.8 5.8-2.8 12.3 0 6.7.4 8.1 3 12.5 1.9 3 4.9 6 7.9 7.9l4.9 3h351.4l4.9-3c3-1.9 6-4.9 7.9-7.9 2.7-4.4 3-5.8 3-12.6s-.3-8.2-3-12.6c-1.9-3-4.9-6-7.9-7.9l-4.9-3-174.1-.2c-140.6-.2-174.8 0-177.7 1.1z"></path>
  </symbol><symbol  viewBox='0 0 32 32' id='phone'>
    <path d="M22 20c-2 2-2 4-4 4s-4-2-6-4-4-4-4-6 2-2 4-4-4-8-6-8-6 6-6 6c0 4 4.109 12.109 8 16s12 8 16 8c0 0 6-4 6-6s-6-8-8-6z"></path>
  </symbol><symbol  viewBox='0 0 512 512' id='right-arrow'>
    <path d="M140 2.2c-4.4 1.7-7.7 4.4-17.1 13.7-14.4 14.3-16.3 17.7-16.4 28.6 0 5.8.5 9.1 1.9 12 1.3 2.7 33.3 35.5 99.5 101.8l97.6 97.7-97.7 97.8c-76 76-98.2 98.7-99.7 102.2-1.4 3-2.1 6.7-2.1 11 0 10.3 2.9 15.3 16.8 29.1 9.8 9.7 12.7 11.9 17.5 13.7 7.3 2.8 13.1 2.8 20.4.1 5.6-2 10.8-7.1 123-119.3C413.4 261 406 269.2 406 256c0-13.2 7.4-5-122.3-134.6C171.4 9.1 166.3 4.1 160.7 2.1c-7.2-2.6-13.6-2.6-20.7.1z" fill="#fff"></path>
  </symbol><symbol  viewBox='0 0 512 512' id='trophy'>
    <path d="M236.5 1.5c-32.2 4.5-61 19-83.7 42.1-11.7 11.9-16.1 18.1-15.4 21.9.7 3.7 3.9 6.5 7.4 6.5 1.9 0 4.1-1.6 8.2-5.9l5.5-6 4.5 6.2c2.5 3.3 6.1 8.8 8.1 12.1l3.7 6-2.9 1.8c-3.5 2.2-5.2 5.9-4 9.1 1.7 4.5 4.7 5.7 10.7 4.3l3.1-.7 2.1 7.3c2.8 9.3 5.2 21.8 5.2 26.9 0 3.5-.3 3.9-2.5 3.9-3.3 0-8.1 2.5-8.9 4.5-2.2 5.7 1.3 10.5 7.6 10.5h4.1l-.6 7.7c-.6 7.5-4.2 24.1-5.6 25.5-.3.4-2.5.2-4.8-.5-10.8-2.9-15.5 9.2-5.5 13.9 2.1.9 3.8 1.8 4 1.9 1 .9-9.9 18.7-15.6 25.5-3.6 4.3-3.9 4.1-12-7.8-23.8-34.9-29.1-76-15.2-117 4-11.8 4.1-14.2.6-17.2-2.4-1.9-7.4-1.7-9.5.6-4.9 5.1-11.5 29.1-13.3 48.2-2.7 28.2 4.4 60 19 84.9 15.7 26.7 40.8 48.7 69.5 60.8l6.7 2.8v4.1c0 8.1-2.1 34.3-3.6 46.6-3.5 28.1-8.9 52.9-16.6 75.6l-4.1 12.2-7.9.4c-12 .7-12.2 1.1-12.6 19.8l-.3 15h-14.2c-15.3.1-16.8.5-18.7 5.4-1.3 3.6-1.3 42.4 0 46.3.6 1.7 2.2 3.5 3.6 4.2 3.9 1.7 245.3 1.5 247.6-.3 3.2-2.4 3.8-6.5 3.8-27.1 0-11.7-.4-21.5-1-23.1-1.9-4.9-3.4-5.3-18.7-5.4h-14.2l-.3-15c-.4-18.7-.6-19.1-12.6-19.8l-7.9-.4-4.1-12.2c-8.7-25.9-15-57.5-18.2-91.5-.6-6.3-1.5-12.2-2-13.1-.5-1-2.2-2.3-3.9-2.9-2.4-1-3.4-1-5.9.3-1.7.9-3.4 2.5-3.7 3.6-1.7 5.5 5.1 55.3 10.9 79.2 2.8 11.7 7.9 29.3 10.3 35.5.4 1-11.2 1.3-56.7 1.3s-57.1-.3-56.7-1.3c2-5.2 7.2-22.8 9.7-32.5 6.1-24.4 11-58.2 12.6-87.5.3-7 1-12.7 1.4-12.7.4 0 4.3.6 8.6 1.4 29 5.2 60.2.9 87.4-12.2 27.9-13.4 53.7-38.9 67-66.5 27.1-56.4 16.2-122.2-27.6-166.1-32.1-32-77.5-47.4-121.9-41.1zm43.2 16.1c21.2 3.7 43.4 14.2 60.6 28.7l2.9 2.4-6.4 8.5c-3.4 4.7-7.9 11.3-9.8 14.7-2.4 4.2-4 6-5 5.7-8.8-2.9-9.8-3-12.4-1.3-3.3 2.2-4.4 6.3-2.5 9.6 1.2 2.2 4.7 4.5 9.2 6.3.5.2 0 2.6-1.1 5.3-2.8 7.1-6.2 22.4-7 31.3l-.7 7.6-4.5.8c-11.6 1.9-11.6 13.3 0 15.5l4.5.9.8 7.9c.6 6.7 3.4 19.6 6.2 29.1.5 1.7 0 2.4-2.5 3.4-6 2.5-7.6 7.7-3.9 12.5 1.8 2.2 2.8 2.6 5.8 2.3 2-.3 4.3-.8 5.2-1.2 1.3-.6 2.5.9 5.7 6.6 3.6 6.6 10.6 16.9 16.3 24l2.2 2.7-2.9 2.5c-5.4 4.9-20.5 14.6-28.7 18.5-17.7 8.4-35 12.2-55.7 12.2-32.4 0-57.4-9.1-84.5-30.8l-2.8-2.3 2.7-3.2c4.2-5.2 14.6-20.8 17.3-26.1 1.9-3.8 2.8-4.7 4.1-4.2 6.4 2.5 11.6 1.3 13.3-3.2 1.5-4-.6-7.9-5.2-10-2.8-1.2-3.8-2.2-3.4-3.3 1.6-3.9 5.5-21.8 6-27.4 1-10.4 1-10.3 6.1-11.1 5.6-.8 8.4-3.4 8.4-7.8s-2.7-6.8-8.5-7.4c-5.1-.6-4.6.4-6.5-13.8-.6-5-2.4-13.6-4-19.3-1.7-5.6-3-10.6-3-11 0-.5 2-1.8 4.5-3 5.7-2.8 7.3-6.2 5.1-10.9-2-4.2-5.2-5-11.6-2.7-2.7 1-5.1 1.6-5.3 1.3-.2-.2-1.9-3.1-3.8-6.4-1.8-3.3-6.2-9.8-9.7-14.4l-6.4-8.3 3.4-2.9c16.6-14.3 42.3-26 63.4-28.8 4.3-.6 9.3-1.3 10.9-1.5 5.2-.7 24.1.4 33.2 2zM364 73c24 35.2 28.3 83.8 11 123.4-4.4 10-11.5 21.9-17.2 28.8-3 3.6-3.8 4.1-5.1 3-2-1.7-10.6-14.3-14.6-21.4l-3.2-5.7 3.3-1.7c5.3-2.6 6.8-4.4 6.8-8.1 0-6.3-6.3-9.2-12.9-5.9l-2.8 1.5-1.6-5.2c-2-6.6-4.7-20.9-4.7-25.2 0-3.1.2-3.3 4.5-3.9 4.4-.7 8.5-4.1 8.5-7.2 0-4.7-4.7-8.4-10.6-8.4-2 0-2.4-.5-2.4-3.3 0-5.3 2.9-20.1 5.3-27.4 2.1-6.1 2.6-6.8 4.8-6.5 6.2.6 8 .4 9.9-1.3 2.9-2.6 2.7-7.9-.5-11-1.3-1.4-2.9-2.5-3.5-2.5-.5 0-1-.4-1-.9 0-1.6 6.3-11.7 11.4-18.2l4.7-6 3.1 3.8c1.6 2.1 4.7 6.3 6.8 9.3zm-29.2 372.2-.3 9.3-6.5.3c-5 .2-7 .8-8.7 2.4-3 2.8-3 7.4-.1 10.5 2.1 2.3 2.4 2.3 25.5 2.3H368v27H144v-27h157.4l2.3-2.2c3-2.8 3-7.4.1-10.5l-2.1-2.3H178v-19h157.1l-.3 9.2z"></path>
  </symbol><symbol  viewBox='0 0 32 32' id='twitter'>
    <path d="M32 7.075a12.941 12.941 0 0 1-3.769 1.031 6.601 6.601 0 0 0 2.887-3.631 13.21 13.21 0 0 1-4.169 1.594A6.565 6.565 0 0 0 22.155 4a6.563 6.563 0 0 0-6.563 6.563c0 .512.056 1.012.169 1.494A18.635 18.635 0 0 1 2.23 5.195a6.56 6.56 0 0 0-.887 3.3 6.557 6.557 0 0 0 2.919 5.463 6.565 6.565 0 0 1-2.975-.819v.081a6.565 6.565 0 0 0 5.269 6.437 6.574 6.574 0 0 1-2.968.112 6.588 6.588 0 0 0 6.131 4.563 13.17 13.17 0 0 1-9.725 2.719 18.568 18.568 0 0 0 10.069 2.95c12.075 0 18.681-10.006 18.681-18.681 0-.287-.006-.569-.019-.85A13.216 13.216 0 0 0 32 7.076z"></path>
  </symbol><symbol  viewBox='0 0 512 512' id='two'>
    <path d="M217.8 12.9c-6.7 2.2-12.3 7.2-16 14.6-2.4 4.5-7.8 23.9-9.4 33.5-2.4 14-2.8 40.7-1.1 76.5 2.7 55.1 2.9 63.3 1.8 81.7-1.8 30.3-4.1 39.9-11.1 46.2-7.7 7-12.2 4.5-30.3-16.9-24.7-29.4-39.6-42-57.5-48.6-15.7-5.8-31-4.2-40.5 4.1-5.9 5.2-7.7 9.3-7.7 17.4 0 14 4.9 22.1 38.8 64.5 38.2 47.7 52.6 69.2 65.4 97.6 6.4 14.4 9.5 23.6 15.2 46.7 6.9 28 10.6 35.9 21.5 46.8 6.4 6.4 9.5 8.6 18.2 12.8 13.4 6.6 23.3 9.1 38.4 9.9 18.9.9 41.2-3 72.9-12.8 12.6-3.8 17.6-7.5 17.6-12.7 0-6.6-7.7-11.7-16.6-11-3.8.3-4.2.1-2.7-1 16.3-11.7 26.1-21.7 36-36.5 7.8-11.7 13.9-25.1 22.2-48.9 3.3-9.7 8.6-23.3 11.6-30.3 7.5-17.2 8.5-21.8 8.5-40.8 0-45.7-9.3-70.3-31.8-84.3-.2-.1-1-3.2-1.7-6.8-3.4-15.9-11.4-23.7-27.1-26.1l-4.1-.6 2.9-9.7c7.5-25.2 18.6-74.9 22.3-100.2 3.9-26.2.7-40.3-10.3-45.9-7.9-3.9-17.9-2.9-26.2 2.5-8.8 5.9-13.8 15.7-19.5 38.5-5.3 21.3-13.4 47.6-25.2 81.9-5.8 16.8-10.7 30.6-10.8 30.8-.9 1-2.8-19.2-4.1-42.3-.8-14.9-2.3-36-3.5-47-1.1-11-2.9-29.5-3.9-41.2-2-22.4-3.1-26.8-8.6-34-5.1-6.7-16.4-10.7-23.6-8.4zm11.9 12.3c.6.5 1.4 4.2 1.8 8.2.7 7.6-.5 12.4-3.9 15.9-2.4 2.3-6.9 2.1-9.1-.3-2.2-2.4-3-11.1-1.8-18 .7-3.7 1.4-4.8 4.1-6.1 3.2-1.7 6.5-1.5 8.9.3zM340.1 42c4.7 2.6 7.4 15.2 4.5 20.9-2 3.8-6.7 6.1-12.4 6.1-6.1 0-6.6-1.3-5.8-14.3.4-6.1 1.2-11.7 1.8-12.4 1.3-1.6 9.2-1.7 11.9-.3zm-97.5 41.5c1.4 12.1 3.1 34.8 4 50.5 1.5 29.2 2.4 39.1 4.9 54.1 3.4 19.8 7 25.9 12.8 21.6 3.3-2.4 39.1-106.8 44.6-130.2 1.7-7.2 3.7-15 4.3-17.5l1.2-4.5.8 5.9c.8 6.5 3.6 10.3 9.3 13.3 3.4 1.8 12.6 2 16.8.4 1.5-.6 2.7-.8 2.7-.5 0 .3-1.1 7-2.6 14.8-6.6 36.7-15.1 70.5-26.4 104.9-6.3 19.3-6.8 21.4-5.5 23.4 1.8 2.7 4.9 3.7 7.2 2.5.9-.6 3.5-6.1 5.9-12.8 2.7-7.9 4.7-12 5.8-12.2 3.7-.8 12.8 2 16.1 4.9 9.2 8.1 9.7 31 1.5 64.8-1.7 6.8-2.8 13.2-2.5 14.1 1.3 4.1 8.2 4.2 10.4.1 1.7-3.2 7-25.8 8.2-35.1 1.9-14.9 1.5-14.2 6-9 11.5 13.3 15.7 30.1 16.2 65.5.2 21.4.9 18.6-9.8 42.9-3.1 7.1-8.1 20.2-11.1 29-11.8 34.7-24.8 54.8-45.9 71-14.5 11.2-25.6 17.2-38.2 20.8-10.2 2.9-31.6 3.1-44.1.4-22.6-4.8-34.9-11.9-43.5-24.9-5.1-7.8-7.7-15.7-8.8-27.6-.5-5.8-1.5-12.6-2.1-15.1-1.2-5-19.8-41.3-30.3-59-14.2-24-31.7-48.4-50.5-70.1l-8.7-10.1 1.4-4.1c2.3-6.5 1.2-15.2-2.8-22.7-3.6-6.8-8.5-11.5-18.2-17.2-3.4-2.1-6.9-4.2-7.7-4.7-2.9-1.7 6.6-5.1 14.5-5.1 6.1 0 8.1.5 14.5 3.6 14.5 6.9 27.9 19.1 52.8 48.1 13.1 15.2 16.2 18 23.2 21.2 13.2 6 29.1-2.7 34-18.5 4.7-15.3 5-25 4-143.4-.3-30.5-.1-57.2.3-59.4.8-3.8.8-3.8 2.4-1.6 1.9 2.8 8.8 6 12.8 6 4.2 0 10.4-3.1 14-6.9l3-3.3.3 4.9c.1 2.6 1.4 14.7 2.8 26.8zm-179.5 143c6.9 3.6 12.3 8.7 15.3 14.8 2.6 5.1 3.4 10.7 1.7 10.7-1.6 0-17.5-17.9-20.4-23-1.6-2.8-2.6-5-2.3-5 .4 0 2.9 1.1 5.7 2.5z"></path><path d="M235.6 271.1c-3.6 2.8-3.3 4.6 1.9 9.5 9.2 8.9 23.5 9.5 23.5 1 0-2.6-3.8-5.6-7.1-5.6-3.4 0-6.1-1.2-10.2-4.6-3.5-2.9-4.7-3-8.1-.3zm52.9 24.3c-3.1 3.1-2.4 5.7 2.8 10.1 4.8 4.1 12.9 6.3 17.9 4.9 4.1-1.2 6.1-4.7 4.6-8-1.2-2.5-2.2-2.8-7.5-2.5-3.5.3-6.3-1-10.6-4.5-3.6-3-4.2-3-7.2 0zm38.8 18.6c-2.5 1.5-3.3 2.7-3.3 4.9 0 5.7 6.6 7.4 10.7 2.7 2.9-3.4 2.9-4.1-.2-7.1-2.9-3-3.1-3-7.2-.5zm77.3-136.5c-.8.8-4.7 7.2-8.7 14.2-6.9 12-7.2 12.7-5.8 15.2.9 1.6 2.5 2.7 4.1 2.9 3.3.4 5.1-1.9 13-16.3 5.6-10.2 5.9-11.2 4.7-13.4-1.9-3.2-5.4-4.5-7.3-2.6zM428 214c-9 5.5-16.8 10.8-17.1 11.8-1.2 3.1 1.2 6.7 4.7 7 2.4.2 6.6-1.8 19.5-9.6 15-9 16.4-10.1 16.7-12.9.4-3.5-1.9-6.3-5.1-6.3-1.2.1-9.6 4.6-18.7 10zm0 42c-2.5 2.5-2.6 5.4-.1 7.9 1.6 1.6 4.2 1.9 18.5 2.6 12.5.5 17 .4 18.1-.5 2.2-1.8 1.9-7.7-.3-8.9-1-.5-8.1-1.3-15.8-1.6-7.6-.3-14.9-.8-16.1-1.1-1.4-.3-3 .3-4.3 1.6z"></path>
  </symbol><symbol  viewBox='0 0 512 512' id='whistle'>
    <path d="M414.7 9.9c-9.4 5-49.6 26.1-89.2 47-53.6 28.3-72.6 38.7-74.4 41-1.3 1.7-2.6 5-2.8 7.5-.5 4.1.2 5.8 8.2 21.1 5.1 9.9 8.3 17.1 7.8 17.6-.5.5-12.4 6.9-26.4 14.3l-25.4 13.4-6.1-11.6c-9.7-18.4-11.7-21.5-15.4-24-6.9-4.7-8.7-4-56.5 21.3-60.5 32-65 34.9-84 54C24.6 237.4 8.8 268.8 1.8 308 1 312.7.5 322.8.6 335c0 17.1.4 21 2.7 32.1 3.6 17 7.6 28.9 14.9 43.7l6 12.3-8.2 8.5C6.6 441.4 2.4 449.2.7 460c-4.4 28.8 22.1 55 51 50.2 10.2-1.7 18.4-6.3 28.2-15.7l8.5-8.2 11 5.3c26.5 12.7 53.7 18.3 82.6 17.1 58-2.5 112.5-34.4 141.9-83 25.7-42.6 32.4-90.1 19.6-139.3-7.9-30.4 3.2-56.3 30.5-71 5.2-2.9 35.6-18.8 67.5-35.4 31.9-16.6 59.9-31.3 62.3-32.7 5.5-3.1 8.6-9 7.9-14.7-.3-2.8-10.6-23.2-32.2-64.1-17.4-33-32.7-61.1-33.9-62.4-2.5-2.8-7.5-5.1-11.1-5.1-1.4 0-10.3 4-19.8 8.9zM452.6 82c12.9 24.4 23.3 44.9 23 45.5-.2.5-27.1 14.9-59.7 32-32.7 17-62.6 33.1-66.5 35.8-8.3 5.5-20.4 18-25.2 26-5.3 8.8-9.9 20.5-11.8 29.6-2.4 12.4-1.5 30.1 2.4 45.1 4.3 16.4 5.6 28.7 4.9 44.9-1 21.6-5.8 39.5-15.9 59.2-20.1 39.2-56.3 66.4-101.2 76.1-8.1 1.7-13.5 2.2-27.6 2.2-26 .1-41.1-3.4-64.5-14.9-39.8-19.6-67.8-56.1-77.7-101.3-3.1-14.1-3.1-42.5 0-56.5 9.2-41.5 33-75.2 67.7-95.9 6.7-4 74.5-39.8 75.8-40.1.5-.1 4.1 5.9 8.1 13.3 3.9 7.4 8.1 15.1 9.3 17.1 2.9 4.5 8.8 7.4 14 6.7 2.3-.4 20.9-9.6 46-22.8 46.8-24.6 46.8-24.6 46.8-34 0-3.7-1.6-7.4-8.6-20.7l-8.6-16.2 43.1-22.8c23.7-12.5 56.2-29.6 72.1-38 16-8.4 29.4-15.2 29.8-15 .5.1 11.4 20.2 24.3 44.7zm-395 391.8c-6.1 6.3-10.7 8.1-16.5 6.4-7.3-2.2-12-9.7-10.6-16.9.4-2.4 2.4-5.4 6.1-9.3l5.4-5.7 10.4 10.1 10.3 10.1-5.1 5.3z"></path><path d="M159.3 235.5c-23.7 4.3-46.3 17.6-61.5 36.4-7.9 9.8-15.7 24.8-19.5 37.6-2.4 8.3-2.7 10.4-2.7 26.5 0 20.7 1.4 27.4 9.3 43.5 12.6 25.5 35.1 43.9 62.8 51.2 12.8 3.4 33.4 3.8 45.8.9 31.2-7.2 56.1-26.8 70.1-55.1 20-40.6 12-86.1-20.3-116.6-21.8-20.5-53.9-29.9-84-24.4zm32.2 30c3.9.8 11.2 3.6 16.4 6.1 15.6 7.7 28.1 22.2 33.2 38.4 7.7 24.7 1.7 51.1-15.8 70-22.4 24.2-55.2 30.5-84.3 16.2-10.1-4.9-23.1-17.7-28.3-27.9-5.2-10-7.7-20.5-7.7-32.2 0-12.3 1.9-20.3 7.7-32.1 3.9-8 5.9-10.8 13.7-18.5 7.2-7.2 10.8-9.9 17.6-13.3 15.6-7.8 31.6-10 47.5-6.7zM252.4 5.4c-1.7.8-4 2.5-5.1 3.9C244 13.6 226 58.4 226 62.5c0 4.2 1.8 8.1 5.4 11.4 3.7 3.5 12.7 4.1 17.3 1.2 4-2.5 4.9-4.4 15.8-31.1 9.6-23.2 10.5-27.8 6.7-32.9-4.8-6.5-12-8.6-18.8-5.7zm-92.5 4.9C155.8 13 153 18.2 153 23c0 4.8 22.6 48.2 27.4 52.7 9.7 9.1 25.4 1.5 24.3-11.7-.3-3.4-3.5-10.3-12.7-27.8-10-18.9-13.1-23.9-15.9-25.8-4.7-3.2-11.5-3.3-16.2-.1zm-50.2 71.2c-5.1 1.8-8.5 5.1-9.8 9.6-2.1 6.8.9 14.2 6.9 17.3 3.4 1.7 48.7 11.6 53.3 11.6 1.9 0 4.9-.9 6.7-2 10.5-6.4 9.3-22.2-2-26.4-3.2-1.2-50.2-11.8-51.1-11.6-.1.1-1.9.7-4 1.5z"></path>
  </symbol></svg>