<svg version="1.0" xmlns="http://www.w3.org/2000/svg" width="682.667" height="682.667" viewBox="0 0 512 512"><path d="M217.8 12.9c-6.7 2.2-12.3 7.2-16 14.6-2.4 4.5-7.8 23.9-9.4 33.5-2.4 14-2.8 40.7-1.1 76.5 2.7 55.1 2.9 63.3 1.8 81.7-1.8 30.3-4.1 39.9-11.1 46.2-7.7 7-12.2 4.5-30.3-16.9-24.7-29.4-39.6-42-57.5-48.6-15.7-5.8-31-4.2-40.5 4.1-5.9 5.2-7.7 9.3-7.7 17.4 0 14 4.9 22.1 38.8 64.5 38.2 47.7 52.6 69.2 65.4 97.6 6.4 14.4 9.5 23.6 15.2 46.7 6.9 28 10.6 35.9 21.5 46.8 6.4 6.4 9.5 8.6 18.2 12.8 13.4 6.6 23.3 9.1 38.4 9.9 18.9.9 41.2-3 72.9-12.8 12.6-3.8 17.6-7.5 17.6-12.7 0-6.6-7.7-11.7-16.6-11-3.8.3-4.2.1-2.7-1 16.3-11.7 26.1-21.7 36-36.5 7.8-11.7 13.9-25.1 22.2-48.9 3.3-9.7 8.6-23.3 11.6-30.3 7.5-17.2 8.5-21.8 8.5-40.8 0-45.7-9.3-70.3-31.8-84.3-.2-.1-1-3.2-1.7-6.8-3.4-15.9-11.4-23.7-27.1-26.1l-4.1-.6 2.9-9.7c7.5-25.2 18.6-74.9 22.3-100.2 3.9-26.2.7-40.3-10.3-45.9-7.9-3.9-17.9-2.9-26.2 2.5-8.8 5.9-13.8 15.7-19.5 38.5-5.3 21.3-13.4 47.6-25.2 81.9-5.8 16.8-10.7 30.6-10.8 30.8-.9 1-2.8-19.2-4.1-42.3-.8-14.9-2.3-36-3.5-47-1.1-11-2.9-29.5-3.9-41.2-2-22.4-3.1-26.8-8.6-34-5.1-6.7-16.4-10.7-23.6-8.4zm11.9 12.3c.6.5 1.4 4.2 1.8 8.2.7 7.6-.5 12.4-3.9 15.9-2.4 2.3-6.9 2.1-9.1-.3-2.2-2.4-3-11.1-1.8-18 .7-3.7 1.4-4.8 4.1-6.1 3.2-1.7 6.5-1.5 8.9.3zM340.1 42c4.7 2.6 7.4 15.2 4.5 20.9-2 3.8-6.7 6.1-12.4 6.1-6.1 0-6.6-1.3-5.8-14.3.4-6.1 1.2-11.7 1.8-12.4 1.3-1.6 9.2-1.7 11.9-.3zm-97.5 41.5c1.4 12.1 3.1 34.8 4 50.5 1.5 29.2 2.4 39.1 4.9 54.1 3.4 19.8 7 25.9 12.8 21.6 3.3-2.4 39.1-106.8 44.6-130.2 1.7-7.2 3.7-15 4.3-17.5l1.2-4.5.8 5.9c.8 6.5 3.6 10.3 9.3 13.3 3.4 1.8 12.6 2 16.8.4 1.5-.6 2.7-.8 2.7-.5 0 .3-1.1 7-2.6 14.8-6.6 36.7-15.1 70.5-26.4 104.9-6.3 19.3-6.8 21.4-5.5 23.4 1.8 2.7 4.9 3.7 7.2 2.5.9-.6 3.5-6.1 5.9-12.8 2.7-7.9 4.7-12 5.8-12.2 3.7-.8 12.8 2 16.1 4.9 9.2 8.1 9.7 31 1.5 64.8-1.7 6.8-2.8 13.2-2.5 14.1 1.3 4.1 8.2 4.2 10.4.1 1.7-3.2 7-25.8 8.2-35.1 1.9-14.9 1.5-14.2 6-9 11.5 13.3 15.7 30.1 16.2 65.5.2 21.4.9 18.6-9.8 42.9-3.1 7.1-8.1 20.2-11.1 29-11.8 34.7-24.8 54.8-45.9 71-14.5 11.2-25.6 17.2-38.2 20.8-10.2 2.9-31.6 3.1-44.1.4-22.6-4.8-34.9-11.9-43.5-24.9-5.1-7.8-7.7-15.7-8.8-27.6-.5-5.8-1.5-12.6-2.1-15.1-1.2-5-19.8-41.3-30.3-59-14.2-24-31.7-48.4-50.5-70.1l-8.7-10.1 1.4-4.1c2.3-6.5 1.2-15.2-2.8-22.7-3.6-6.8-8.5-11.5-18.2-17.2-3.4-2.1-6.9-4.2-7.7-4.7-2.9-1.7 6.6-5.1 14.5-5.1 6.1 0 8.1.5 14.5 3.6 14.5 6.9 27.9 19.1 52.8 48.1 13.1 15.2 16.2 18 23.2 21.2 13.2 6 29.1-2.7 34-18.5 4.7-15.3 5-25 4-143.4-.3-30.5-.1-57.2.3-59.4.8-3.8.8-3.8 2.4-1.6 1.9 2.8 8.8 6 12.8 6 4.2 0 10.4-3.1 14-6.9l3-3.3.3 4.9c.1 2.6 1.4 14.7 2.8 26.8zm-179.5 143c6.9 3.6 12.3 8.7 15.3 14.8 2.6 5.1 3.4 10.7 1.7 10.7-1.6 0-17.5-17.9-20.4-23-1.6-2.8-2.6-5-2.3-5 .4 0 2.9 1.1 5.7 2.5z"/><path d="M235.6 271.1c-3.6 2.8-3.3 4.6 1.9 9.5 9.2 8.9 23.5 9.5 23.5 1 0-2.6-3.8-5.6-7.1-5.6-3.4 0-6.1-1.2-10.2-4.6-3.5-2.9-4.7-3-8.1-.3zm52.9 24.3c-3.1 3.1-2.4 5.7 2.8 10.1 4.8 4.1 12.9 6.3 17.9 4.9 4.1-1.2 6.1-4.7 4.6-8-1.2-2.5-2.2-2.8-7.5-2.5-3.5.3-6.3-1-10.6-4.5-3.6-3-4.2-3-7.2 0zm38.8 18.6c-2.5 1.5-3.3 2.7-3.3 4.9 0 5.7 6.6 7.4 10.7 2.7 2.9-3.4 2.9-4.1-.2-7.1-2.9-3-3.1-3-7.2-.5zm77.3-136.5c-.8.8-4.7 7.2-8.7 14.2-6.9 12-7.2 12.7-5.8 15.2.9 1.6 2.5 2.7 4.1 2.9 3.3.4 5.1-1.9 13-16.3 5.6-10.2 5.9-11.2 4.7-13.4-1.9-3.2-5.4-4.5-7.3-2.6zM428 214c-9 5.5-16.8 10.8-17.1 11.8-1.2 3.1 1.2 6.7 4.7 7 2.4.2 6.6-1.8 19.5-9.6 15-9 16.4-10.1 16.7-12.9.4-3.5-1.9-6.3-5.1-6.3-1.2.1-9.6 4.6-18.7 10zm0 42c-2.5 2.5-2.6 5.4-.1 7.9 1.6 1.6 4.2 1.9 18.5 2.6 12.5.5 17 .4 18.1-.5 2.2-1.8 1.9-7.7-.3-8.9-1-.5-8.1-1.3-15.8-1.6-7.6-.3-14.9-.8-16.1-1.1-1.4-.3-3 .3-4.3 1.6z"/></svg>