<svg version="1.0" xmlns="http://www.w3.org/2000/svg" width="682.667" height="682.667" viewBox="0 0 512 512"><path d="M414.7 9.9c-9.4 5-49.6 26.1-89.2 47-53.6 28.3-72.6 38.7-74.4 41-1.3 1.7-2.6 5-2.8 7.5-.5 4.1.2 5.8 8.2 21.1 5.1 9.9 8.3 17.1 7.8 17.6-.5.5-12.4 6.9-26.4 14.3l-25.4 13.4-6.1-11.6c-9.7-18.4-11.7-21.5-15.4-24-6.9-4.7-8.7-4-56.5 21.3-60.5 32-65 34.9-84 54C24.6 237.4 8.8 268.8 1.8 308 1 312.7.5 322.8.6 335c0 17.1.4 21 2.7 32.1 3.6 17 7.6 28.9 14.9 43.7l6 12.3-8.2 8.5C6.6 441.4 2.4 449.2.7 460c-4.4 28.8 22.1 55 51 50.2 10.2-1.7 18.4-6.3 28.2-15.7l8.5-8.2 11 5.3c26.5 12.7 53.7 18.3 82.6 17.1 58-2.5 112.5-34.4 141.9-83 25.7-42.6 32.4-90.1 19.6-139.3-7.9-30.4 3.2-56.3 30.5-71 5.2-2.9 35.6-18.8 67.5-35.4 31.9-16.6 59.9-31.3 62.3-32.7 5.5-3.1 8.6-9 7.9-14.7-.3-2.8-10.6-23.2-32.2-64.1-17.4-33-32.7-61.1-33.9-62.4-2.5-2.8-7.5-5.1-11.1-5.1-1.4 0-10.3 4-19.8 8.9zM452.6 82c12.9 24.4 23.3 44.9 23 45.5-.2.5-27.1 14.9-59.7 32-32.7 17-62.6 33.1-66.5 35.8-8.3 5.5-20.4 18-25.2 26-5.3 8.8-9.9 20.5-11.8 29.6-2.4 12.4-1.5 30.1 2.4 45.1 4.3 16.4 5.6 28.7 4.9 44.9-1 21.6-5.8 39.5-15.9 59.2-20.1 39.2-56.3 66.4-101.2 76.1-8.1 1.7-13.5 2.2-27.6 2.2-26 .1-41.1-3.4-64.5-14.9-39.8-19.6-67.8-56.1-77.7-101.3-3.1-14.1-3.1-42.5 0-56.5 9.2-41.5 33-75.2 67.7-95.9 6.7-4 74.5-39.8 75.8-40.1.5-.1 4.1 5.9 8.1 13.3 3.9 7.4 8.1 15.1 9.3 17.1 2.9 4.5 8.8 7.4 14 6.7 2.3-.4 20.9-9.6 46-22.8 46.8-24.6 46.8-24.6 46.8-34 0-3.7-1.6-7.4-8.6-20.7l-8.6-16.2 43.1-22.8c23.7-12.5 56.2-29.6 72.1-38 16-8.4 29.4-15.2 29.8-15 .5.1 11.4 20.2 24.3 44.7zm-395 391.8c-6.1 6.3-10.7 8.1-16.5 6.4-7.3-2.2-12-9.7-10.6-16.9.4-2.4 2.4-5.4 6.1-9.3l5.4-5.7 10.4 10.1 10.3 10.1-5.1 5.3z"/><path d="M159.3 235.5c-23.7 4.3-46.3 17.6-61.5 36.4-7.9 9.8-15.7 24.8-19.5 37.6-2.4 8.3-2.7 10.4-2.7 26.5 0 20.7 1.4 27.4 9.3 43.5 12.6 25.5 35.1 43.9 62.8 51.2 12.8 3.4 33.4 3.8 45.8.9 31.2-7.2 56.1-26.8 70.1-55.1 20-40.6 12-86.1-20.3-116.6-21.8-20.5-53.9-29.9-84-24.4zm32.2 30c3.9.8 11.2 3.6 16.4 6.1 15.6 7.7 28.1 22.2 33.2 38.4 7.7 24.7 1.7 51.1-15.8 70-22.4 24.2-55.2 30.5-84.3 16.2-10.1-4.9-23.1-17.7-28.3-27.9-5.2-10-7.7-20.5-7.7-32.2 0-12.3 1.9-20.3 7.7-32.1 3.9-8 5.9-10.8 13.7-18.5 7.2-7.2 10.8-9.9 17.6-13.3 15.6-7.8 31.6-10 47.5-6.7zM252.4 5.4c-1.7.8-4 2.5-5.1 3.9C244 13.6 226 58.4 226 62.5c0 4.2 1.8 8.1 5.4 11.4 3.7 3.5 12.7 4.1 17.3 1.2 4-2.5 4.9-4.4 15.8-31.1 9.6-23.2 10.5-27.8 6.7-32.9-4.8-6.5-12-8.6-18.8-5.7zm-92.5 4.9C155.8 13 153 18.2 153 23c0 4.8 22.6 48.2 27.4 52.7 9.7 9.1 25.4 1.5 24.3-11.7-.3-3.4-3.5-10.3-12.7-27.8-10-18.9-13.1-23.9-15.9-25.8-4.7-3.2-11.5-3.3-16.2-.1zm-50.2 71.2c-5.1 1.8-8.5 5.1-9.8 9.6-2.1 6.8.9 14.2 6.9 17.3 3.4 1.7 48.7 11.6 53.3 11.6 1.9 0 4.9-.9 6.7-2 10.5-6.4 9.3-22.2-2-26.4-3.2-1.2-50.2-11.8-51.1-11.6-.1.1-1.9.7-4 1.5z"/></svg>